<?xml version="1.0" encoding="UTF-8"?>
<svg version="1.1" xmlns="http://www.w3.org/2000/svg" width="490" height="509">
<path d="M0 0 C0.93972656 0.63164063 1.87945312 1.26328125 2.84765625 1.9140625 C16.11585803 10.9996788 16.11585803 10.9996788 17.86328125 14.953125 C18 17 18 17 16.8828125 18.75390625 C16.30273438 19.35074219 15.72265625 19.94757813 15.125 20.5625 C12.11410552 23.7833174 9.27005493 27.06836838 6.5 30.5 C3.19559312 34.56826806 -0.18552975 38.54222179 -3.6875 42.44140625 C-5.08818044 43.98131601 -5.08818044 43.98131601 -6 46 C-6.66 46 -7.32 46 -8 46 C-8 46.66 -8 47.32 -8 48 C-8.66 48 -9.32 48 -10 48 C-10.24621094 48.55558594 -10.49242187 49.11117187 -10.74609375 49.68359375 C-12.24004406 52.44344588 -14.05058408 54.65316859 -16.0625 57.0625 C-19.8288841 61.58409702 -19.8288841 61.58409702 -23.5234375 66.1640625 C-24.32007813 67.16179687 -25.11671875 68.15953125 -25.9375 69.1875 C-26.66839844 70.10917969 -27.39929688 71.03085938 -28.15234375 71.98046875 C-28.76207031 72.64691406 -29.37179687 73.31335938 -30 74 C-30.66 74 -31.32 74 -32 74 C-32.21269531 74.52207031 -32.42539062 75.04414063 -32.64453125 75.58203125 C-34.5621563 79.00280908 -37.1007748 81.75482499 -39.6875 84.6875 C-43.88900992 89.50055045 -47.92225877 94.36129931 -51.6953125 99.5234375 C-52.12585938 100.01070312 -52.55640625 100.49796875 -53 101 C-53.66 101 -54.32 101 -55 101 C-55.268125 101.57234375 -55.53625 102.1446875 -55.8125 102.734375 C-57.04132636 105.07884634 -58.42522176 107.12404938 -60 109.25 C-60.515625 109.95640625 -61.03125 110.6628125 -61.5625 111.390625 C-62.2740625 112.18726563 -62.2740625 112.18726563 -63 113 C-63.66 113 -64.32 113 -65 113 C-65 113.66 -65 114.32 -65 115 C-70.01441603 114.848048 -72.33354746 112.07298671 -75.64453125 108.69140625 C-77 107 -77 107 -77 105 C-77.60199219 104.72414062 -78.20398438 104.44828125 -78.82421875 104.1640625 C-81 103 -81 103 -83.8125 100.375 C-99.90917735 86.25146374 -121.64881371 81.87868062 -142.41015625 82.80029297 C-153.46917824 83.653072 -164.27580899 86.6563551 -174 92 C-174.84820312 92.4640625 -175.69640625 92.928125 -176.5703125 93.40625 C-198.2645537 105.87878011 -212.59551012 125.21589592 -219.22265625 149.296875 C-224.57178101 169.79181012 -225.4584389 191.63858757 -219 212 C-218.78037598 212.69657715 -218.56075195 213.3931543 -218.33447266 214.11083984 C-214.09628718 227.13133747 -207.81405339 238.48061889 -199 249 C-198.40703125 249.73863281 -197.8140625 250.47726562 -197.203125 251.23828125 C-183.8458446 267.21734189 -163.47116605 277.32849239 -142.76074219 279.20263672 C-120.32955736 280.55932267 -99.89153257 274.48789984 -82.75 259.625 C-80.38685812 257.56833911 -80.38685812 257.56833911 -78 255 C-77.39414062 254.3822168 -76.78828125 253.76443359 -76.1640625 253.12792969 C-70.64319177 246.92812597 -70.06776995 242.11975017 -70.5 234 C-70.52320313 232.95199219 -70.54640625 231.90398437 -70.5703125 230.82421875 C-70.29440082 226.06239421 -70.29440082 226.06239421 -72 222 C-74.49399065 221.87502385 -76.96168329 221.8139712 -79.45727539 221.79467773 C-80.23770706 221.78477814 -81.01813873 221.77487854 -81.82221985 221.76467896 C-84.41400063 221.73297225 -87.00579977 221.7082705 -89.59765625 221.68359375 C-91.38985178 221.66303213 -93.18204237 221.64203587 -94.97422791 221.62062073 C-99.7006532 221.56531824 -104.42712285 221.51594517 -109.15362549 221.46777344 C-113.97290005 221.41761795 -118.79210988 221.36190089 -123.61132812 221.30664062 C-133.07416351 221.19895911 -142.53705499 221.09753649 -152 221 C-153.27241529 216.13694807 -153.37132605 211.38682578 -153.5625 206.375 C-153.6042334 205.29629639 -153.6459668 204.21759277 -153.68896484 203.10620117 C-154.01915786 193.50836618 -154.10899452 183.91499665 -154.125 174.3125 C-154.1275882 173.60301208 -154.13017639 172.89352417 -154.13284302 172.16253662 C-154.15397812 164.82515052 -154.05386517 157.49639817 -153.6796875 150.16796875 C-153.62280762 149.05059326 -153.56592773 147.93321777 -153.50732422 146.78198242 C-152.92617798 143.59518677 -152.59928958 142.8546486 -150 141 C-146.98707676 140.61968327 -146.98707676 140.61968327 -143.21229553 140.61231995 C-142.51835062 140.60693441 -141.82440571 140.60154887 -141.10943216 140.59600013 C-138.77858618 140.58166529 -136.4483037 140.58883757 -134.11743164 140.59594727 C-132.44861899 140.59024655 -130.77981025 140.58328346 -129.11100769 140.57514954 C-124.5738154 140.55716959 -120.03681599 140.55839559 -115.49959874 140.56409192 C-111.71465607 140.56717689 -107.92975083 140.56109902 -104.14481348 140.55505317 C-95.2170349 140.54099359 -86.28935198 140.54258105 -77.36157227 140.55395508 C-68.14507541 140.56543732 -58.9288695 140.55136213 -49.71241099 140.5245586 C-41.80490155 140.50242111 -33.89748358 140.49575983 -25.98994535 140.50163502 C-21.26473651 140.50501053 -16.53971418 140.50255023 -11.81453133 140.48538399 C-7.37146984 140.46994798 -2.92884019 140.47383295 1.51420403 140.49268913 C3.1460461 140.49638437 4.77791993 140.49323941 6.40973282 140.48280334 C8.63542761 140.46965459 10.85967982 140.48108436 13.08531189 140.49879456 C14.95439414 140.49910848 14.95439414 140.49910848 16.86123562 140.49942875 C20 141 20 141 22.40279484 142.49517727 C24.69617531 146.09177943 24.53462858 149.44935954 24.4699707 153.57836914 C24.47212711 154.45284478 24.47428352 155.32732042 24.47650528 156.22829533 C24.47875271 159.16428093 24.45221722 162.09929903 24.42578125 165.03515625 C24.42133977 167.1376009 24.41860922 169.24004975 24.41746521 171.34249878 C24.40894936 177.05740802 24.37494828 182.77190678 24.33537292 188.48667526 C24.29715659 194.46120196 24.27854434 200.43579526 24.25683594 206.41040039 C24.21709172 216.44461201 24.16040681 226.4786256 24.09423828 236.51269531 C24.0179413 248.12109032 23.97045182 259.72933962 23.93794918 271.33793354 C23.90931924 281.29647378 23.86520005 291.25485728 23.80806828 301.21327496 C23.77393702 307.16466203 23.74520344 313.11594397 23.7303772 319.06741333 C23.71557087 324.66210432 23.68135018 330.2563442 23.63200569 335.85083389 C23.61706463 337.90674149 23.60893561 339.96271126 23.60803032 342.01867294 C23.60569706 344.82015699 23.57896843 347.6203658 23.54589844 350.42163086 C23.55093038 351.23991395 23.55596231 352.05819704 23.56114674 352.90127659 C23.49503405 356.46930548 23.32776311 358.56660116 21.14385986 361.45436096 C18.51406862 363.3503375 15.99633231 364.36337784 12.9375 365.4375 C8.703646 366.9809451 4.58103019 368.588328 0.5 370.5 C-9.51601817 375.12500117 -19.81388039 378.66893285 -30.3515625 381.875 C-33.13871816 382.73442273 -35.87963945 383.64524308 -38.625 384.625 C-47.20084307 387.52734077 -56.3220551 388.91796783 -65.20703125 390.5703125 C-67.01192545 390.83764442 -67.01192545 390.83764442 -68 392 C-69.80811184 392.20896317 -71.62216032 392.36780361 -73.4375 392.5 C-77.36434915 392.71419183 -77.36434915 392.71419183 -81 394 C-84.63386433 394.31713725 -88.26847692 394.51171036 -91.91015625 394.71875 C-94.86908486 394.65571925 -94.86908486 394.65571925 -96 396 C-99.42470005 396.27037106 -102.84239304 396.44629658 -106.2734375 396.60546875 C-109.94187048 396.46158649 -109.94187048 396.46158649 -113 398 C-114.62127423 398.09861598 -116.24682368 398.12798767 -117.87109375 398.12939453 C-119.42775757 398.13412277 -119.42775757 398.13412277 -121.01586914 398.13894653 C-122.70957642 398.13591019 -122.70957642 398.13591019 -124.4375 398.1328125 C-125.58790771 398.13376923 -126.73831543 398.13472595 -127.92358398 398.13571167 C-130.36149144 398.13639369 -132.7994007 398.1345379 -135.23730469 398.13037109 C-138.98376518 398.12502317 -142.73010577 398.13031539 -146.4765625 398.13671875 C-148.83854193 398.13605797 -151.20052129 398.13477682 -153.5625 398.1328125 C-154.69163818 398.13483673 -155.82077637 398.13686096 -156.98413086 398.13894653 C-158.02190674 398.13579437 -159.05968262 398.13264221 -160.12890625 398.12939453 C-161.04744385 398.12859894 -161.96598145 398.12780334 -162.91235352 398.12698364 C-165 398 -165 398 -166 397 C-168.32986123 396.79031249 -170.66444036 396.63184611 -173 396.5 C-179.88888889 396.11111111 -179.88888889 396.11111111 -181 395 C-182.99603206 394.79111292 -184.99742941 394.63224523 -187 394.5 C-192.88888889 394.11111111 -192.88888889 394.11111111 -194 393 C-195.27359375 392.87753906 -196.5471875 392.75507813 -197.859375 392.62890625 C-203.52714647 392.0484853 -208.80275169 390.56336521 -214.25 388.9375 C-215.81947388 388.47114136 -215.81947388 388.47114136 -217.4206543 387.99536133 C-234.08885188 382.94214104 -249.66809747 376.67371879 -264.88085938 368.17871094 C-266.82109296 367.09951189 -268.77379848 366.04943487 -270.734375 365.0078125 C-279.5344043 360.20960648 -287.43064756 354.48807276 -295.31298828 348.31835938 C-296.85034654 347.11695061 -298.40666505 345.9399046 -299.96484375 344.765625 C-300.97224609 343.89164062 -300.97224609 343.89164062 -302 343 C-302 342.34 -302 341.68 -302 341 C-302.99 340.67 -303.98 340.34 -305 340 C-305 339.34 -305 338.68 -305 338 C-305.639375 337.731875 -306.27875 337.46375 -306.9375 337.1875 C-309 336 -309 336 -310 333 C-312.01508358 332.26676204 -312.01508358 332.26676204 -314 332 C-314 331.34 -314 330.68 -314 330 C-314.66 330 -315.32 330 -316 330 C-317.2265625 328.6015625 -317.2265625 328.6015625 -318.625 326.625 C-320.93160687 323.43596242 -323.31692123 320.35601023 -325.8125 317.3125 C-332.70511893 308.72973697 -338.89073503 299.7540513 -344 290 C-344.70696319 288.70758291 -345.41544497 287.41599595 -346.125 286.125 C-350.77188846 277.60925272 -354.818103 269.18547624 -358 260 C-358.55930989 258.49197005 -359.11925306 256.98417489 -359.6796875 255.4765625 C-367.42419725 234.10012439 -370.87826106 211.65572737 -372 189 C-372.03996094 188.20787109 -372.07992188 187.41574219 -372.12109375 186.59960938 C-373.01192261 165.59386494 -370.76252808 142.54628322 -364.9375 122.30859375 C-364.19692741 119.69498965 -363.74496004 117.4941097 -363.5625 114.8125 C-363 111 -363 111 -361.6328125 109.21484375 C-359.48514364 106.30161829 -358.45418593 103.14401497 -357.3125 99.75 C-356.97508789 98.77546875 -356.97508789 98.77546875 -356.63085938 97.78125 C-356.08083773 96.18969801 -355.53953212 94.59513844 -355 93 C-354.34 93 -353.68 93 -353 93 C-352.90847656 92.16210938 -352.81695312 91.32421875 -352.72265625 90.4609375 C-351.89195787 86.4825658 -350.31535657 83.1873497 -348.4375 79.625 C-348.10814453 78.98433594 -347.77878906 78.34367187 -347.43945312 77.68359375 C-346.63360518 76.11861368 -345.81781507 74.55875979 -345 73 C-344.34 73 -343.68 73 -343 73 C-342.90589844 72.46503906 -342.81179688 71.93007812 -342.71484375 71.37890625 C-341.77544617 68.25271432 -340.23242763 65.7392289 -338.5625 62.9375 C-337.94503906 61.89464844 -337.32757813 60.85179688 -336.69140625 59.77734375 C-335.50272576 57.82549195 -334.26766736 55.90150104 -333 54 C-332.34 54 -331.68 54 -331 54 C-330.75894531 53.28714844 -330.51789063 52.57429688 -330.26953125 51.83984375 C-328.81348857 48.58278829 -326.98649772 46.28652251 -324.6875 43.5625 C-323.88570312 42.60859375 -323.08390625 41.6546875 -322.2578125 40.671875 C-321.51273438 39.79015625 -320.76765625 38.9084375 -320 38 C-319.02000701 36.77149204 -318.04063387 35.5424887 -317.0625 34.3125 C-316.381875 33.549375 -315.70125 32.78625 -315 32 C-314.34 32 -313.68 32 -313 32 C-312.59491211 31.1013623 -312.59491211 31.1013623 -312.18164062 30.18457031 C-311.00433439 28.00801325 -309.89988631 26.71329133 -308.09375 25.046875 C-307.51939209 24.51360596 -306.94503418 23.98033691 -306.35327148 23.4309082 C-305.74169189 22.8762085 -305.1301123 22.32150879 -304.5 21.75 C-303.87359619 21.17660889 -303.24719238 20.60321777 -302.60180664 20.01245117 C-288.70743222 7.39298548 -288.70743222 7.39298548 -282 5 C-282 4.34 -282 3.68 -282 3 C-269.38640404 -6.97522202 -251.99672396 -14.34379615 -237 -20 C-235.4998421 -20.6246209 -233.99984954 -21.24963901 -232.5 -21.875 C-158.79782422 -51.0130695 -66.16803209 -44.86791894 0 0 Z " fill="#2F599C" transform="translate(392,64)"/>
<path d="M0 0 C0.72772614 -0.00190338 1.45545227 -0.00380676 2.20523071 -0.00576782 C15.54411074 -0.00181244 28.76335183 0.94412799 41.6875 4.4375 C45.77460907 5.52928981 49.8373156 6.60295337 54 7.375 C54 8.035 54 8.695 54 9.375 C55.258125 9.601875 56.51625 9.82875 57.8125 10.0625 C67.56133045 12.24397028 76.34527923 17.46064188 84.875 22.5 C86.30573853 23.34498047 86.30573853 23.34498047 87.76538086 24.20703125 C97.78136154 30.25415941 109.04080391 37.83702195 115.5625 47.75 C116.11861449 51.08668696 115.0871855 52.80824038 113.28515625 55.59375 C111.30279324 58.34134128 109.30751594 60.88531174 107 63.375 C106.34 63.375 105.68 63.375 105 63.375 C104.78730469 63.89707031 104.57460938 64.41914063 104.35546875 64.95703125 C102.4378437 68.37780908 99.8992252 71.12982499 97.3125 74.0625 C93.11099008 78.87555045 89.07774123 83.73629931 85.3046875 88.8984375 C84.87414062 89.38570313 84.44359375 89.87296875 84 90.375 C83.34 90.375 82.68 90.375 82 90.375 C81.731875 90.94734375 81.46375 91.5196875 81.1875 92.109375 C79.95867364 94.45384634 78.57477824 96.49904938 77 98.625 C76.484375 99.33140625 75.96875 100.0378125 75.4375 100.765625 C74.963125 101.29671875 74.48875 101.8278125 74 102.375 C73.34 102.375 72.68 102.375 72 102.375 C72 103.035 72 103.695 72 104.375 C66.98558397 104.223048 64.66645254 101.44798671 61.35546875 98.06640625 C60 96.375 60 96.375 60 94.375 C59.39800781 94.09914063 58.79601562 93.82328125 58.17578125 93.5390625 C56 92.375 56 92.375 53.1875 89.75 C37.09082265 75.62646374 15.35118629 71.25368062 -5.41015625 72.17529297 C-16.46917824 73.028072 -27.27580899 76.0313551 -37 81.375 C-38.27230469 82.07109375 -38.27230469 82.07109375 -39.5703125 82.78125 C-61.2645537 95.25378011 -75.59551012 114.59089592 -82.22265625 138.671875 C-87.57178101 159.16681012 -88.4584389 181.01358757 -82 201.375 C-81.78037598 202.07157715 -81.56075195 202.7681543 -81.33447266 203.48583984 C-77.09628718 216.50633747 -70.81405339 227.85561889 -62 238.375 C-61.40703125 239.11363281 -60.8140625 239.85226562 -60.203125 240.61328125 C-46.8458446 256.59234189 -26.47116605 266.70349239 -5.76074219 268.57763672 C16.69018877 269.93551696 37.24286661 263.87790647 54.3125 248.875 C57.71870347 245.7171093 60.81298597 242.46428508 63.6484375 238.78515625 C65.25624814 237.10764283 66.88677285 236.30571919 69 235.375 C76.17472202 241.21489001 81.91000963 247.627779 87.5390625 254.93554688 C90.42358751 258.61516532 93.24988174 261.5289281 97 264.375 C97.66666667 265.70833333 98.33333333 267.04166667 99 268.375 C99.75023437 268.96152344 100.50046875 269.54804688 101.2734375 270.15234375 C104.17414949 272.51696427 106.30474005 275.0072748 108.625 277.9375 C111.53686524 281.65008681 111.53686524 281.65008681 114.78125 285.05859375 C115.1834375 285.49300781 115.585625 285.92742187 116 286.375 C115.85329693 289.30906133 115.39186784 290.88090576 113.5625 293.1875 C112 294.375 112 294.375 110 294.375 C109.67 295.365 109.34 296.355 109 297.375 C108.34 297.375 107.68 297.375 107 297.375 C106.67515625 298.23158203 106.67515625 298.23158203 106.34375 299.10546875 C104.55099292 302.13335207 102.34353631 303.62447043 99.5 305.6875 C98.96681152 306.07631348 98.43362305 306.46512695 97.88427734 306.86572266 C96.26231762 308.04397053 94.63119914 309.209577 93 310.375 C92.07445312 311.04660156 91.14890625 311.71820313 90.1953125 312.41015625 C79.06820594 320.375 79.06820594 320.375 75 320.375 C75 321.035 75 321.695 75 322.375 C74.3709375 322.61734375 73.741875 322.8596875 73.09375 323.109375 C69.03543742 324.6984733 65.07515449 326.27948058 61.25 328.375 C56.54396411 330.80422905 51.53167089 332.05752005 46.4375 333.43359375 C43.6234671 334.20425503 40.88831575 335.07111515 38.125 336 C25.76013345 339.65680096 12.54059968 339.74804959 -0.25317383 339.74560547 C-2.80032306 339.74997909 -5.3457325 339.78647318 -7.89257812 339.82421875 C-19.703114 339.90400671 -30.56908171 338.29281597 -42 335.375 C-42.68522736 335.20058884 -43.37045471 335.02617767 -44.07644653 334.84648132 C-52.38378735 332.70609798 -60.150785 329.81414935 -68 326.375 C-69.66412887 325.70202354 -71.3300219 325.03332771 -73 324.375 C-73 323.715 -73 323.055 -73 322.375 C-74.175625 322.0346875 -74.175625 322.0346875 -75.375 321.6875 C-83.49367698 318.74797903 -90.26254046 314.70638103 -97 309.375 C-98.46759766 308.29412109 -98.46759766 308.29412109 -99.96484375 307.19140625 C-111.90158529 298.37447441 -122.00160223 288.19199138 -131 276.375 C-131.67216553 275.50875 -131.67216553 275.50875 -132.35791016 274.625 C-142.93935391 260.87449441 -160.96838944 236.58260231 -159 218.375 C-159.66 218.375 -160.32 218.375 -161 218.375 C-165.07460131 202.51121891 -166.38881922 187.0059376 -166.3125 170.6875 C-166.30926727 169.43767334 -166.30926727 169.43767334 -166.30596924 168.16259766 C-166.25297578 155.36820112 -165.81331907 142.90475978 -163 130.375 C-162.70198486 129.02414307 -162.70198486 129.02414307 -162.39794922 127.64599609 C-159.81196028 116.32769396 -156.41667216 105.97947565 -150.83203125 95.78515625 C-148.95717483 92.44097421 -148.95717483 92.44097421 -147.63671875 89.01953125 C-145.5375604 84.34527172 -142.84934291 80.24648448 -140 76 C-139.19949219 74.77216797 -139.19949219 74.77216797 -138.3828125 73.51953125 C-137.86460937 72.74222656 -137.34640625 71.96492188 -136.8125 71.1640625 C-136.11060547 70.10759521 -136.11060547 70.10759521 -135.39453125 69.02978516 C-134 67.375 -134 67.375 -131 66.375 C-130.66595862 65.04184388 -130.33279328 63.70846823 -130 62.375 C-125.31642039 55.68270791 -119.72538399 49.10050961 -113 44.375 C-112.34 44.375 -111.68 44.375 -111 44.375 C-110.71382812 43.55515625 -110.71382812 43.55515625 -110.421875 42.71875 C-108.34202269 39.29042201 -105.41705035 37.27646173 -102.25 34.875 C-101.6415625 34.40191406 -101.033125 33.92882812 -100.40625 33.44140625 C-89.94896988 25.375 -89.94896988 25.375 -87 25.375 C-87 24.715 -87 24.055 -87 23.375 C-81.09737429 20.0767878 -75.26179376 16.94680815 -69 14.375 C-68.23816406 14.00761719 -67.47632813 13.64023438 -66.69140625 13.26171875 C-45.57551494 3.12734595 -23.20118248 0.0064959 0 0 Z " fill="#020203" transform="translate(255,74.625)"/>
<path d="M0 0 C0.33 0 0.66 0 1 0 C3.13464419 17.71340024 3.19775732 35.30070007 3.00085878 53.10652685 C2.95955926 57.05550189 2.93088112 61.00457077 2.90072632 64.9536438 C2.84206565 72.39390023 2.7724499 79.83400993 2.69865549 87.27412999 C2.6150355 95.76050225 2.54399767 104.24696628 2.47388959 112.73345923 C2.32968615 130.15577592 2.17009506 147.57791722 2 165 C1.34 165 0.68 165 0 165 C0 110.55 0 56.1 0 0 Z " fill="#2A4572" transform="translate(413,208)"/>
<path d="M0 0 C1.4540625 0.0309375 1.4540625 0.0309375 2.9375 0.0625 C2.9375 0.7225 2.9375 1.3825 2.9375 2.0625 C0.16286139 3.44981931 -2.08142337 3.18526339 -5.18740845 3.18275452 C-6.49435165 3.18412918 -7.80129486 3.18550385 -9.14784241 3.18692017 C-10.60458397 3.18338077 -12.0613253 3.17974596 -13.51806641 3.17602539 C-15.04543557 3.17574345 -16.57280487 3.17590139 -18.10017395 3.1764679 C-22.25489349 3.1767556 -26.40958434 3.1708632 -30.5642972 3.16389394 C-34.90316403 3.15765594 -39.24203147 3.15705625 -43.5809021 3.15586853 C-51.80088787 3.15275654 -60.02086039 3.14454491 -68.24084032 3.13451904 C-77.59741786 3.12335383 -86.95399604 3.11784642 -96.31057858 3.11282361 C-115.56122658 3.1023622 -134.81186222 3.08476529 -154.0625 3.0625 C-154.0625 2.7325 -154.0625 2.4025 -154.0625 2.0625 C-153.29036195 2.05826806 -152.5182239 2.05403612 -151.72268772 2.04967594 C-132.96228912 1.94651353 -114.20192942 1.83789771 -95.44159794 1.72316074 C-86.3693631 1.667808 -77.29712433 1.6143227 -68.22485352 1.56518555 C-60.32038818 1.52236876 -52.41595205 1.47609721 -44.51153177 1.42562145 C-40.32356995 1.39900025 -36.135614 1.37414676 -31.94761848 1.35342598 C-28.01031864 1.33389109 -24.07307448 1.30975696 -20.1358242 1.28200912 C-18.68656548 1.27262195 -17.23729451 1.26495271 -15.78801727 1.25908089 C-13.81776542 1.25084801 -11.84754452 1.23598238 -9.87733459 1.22071838 C-8.77210481 1.21426583 -7.66687502 1.20781328 -6.52815342 1.2011652 C-3.37106844 1.02361477 -3.37730527 0.0689246 0 0 Z " fill="#2E4471" transform="translate(409.0625,204.9375)"/>
<path d="M0 0 C2.24417438 0.01068077 4.48753977 0.00005972 6.73168945 -0.01269531 C16.60749442 -0.02079654 26.17941793 0.80619772 35.94458008 2.26074219 C35.94458008 2.59074219 35.94458008 2.92074219 35.94458008 3.26074219 C33.29867994 3.28758898 30.65304912 3.30750575 28.00708008 3.32324219 C26.87496094 3.33581055 26.87496094 3.33581055 25.7199707 3.34863281 C23.79463694 3.3572666 21.86922427 3.31298552 19.94458008 3.26074219 C19.44958008 2.76574219 19.44958008 2.76574219 18.94458008 2.26074219 C16.92341437 2.24383582 14.90160152 2.29859044 12.88208008 2.38183594 C10.98449951 2.45446655 10.98449951 2.45446655 9.04858398 2.52856445 C8.3774054 2.55636993 7.70622681 2.58417542 7.01470947 2.61282349 C3.58290193 2.75442842 0.15052194 2.87953399 -3.28198242 3.00292969 C-4.29332748 3.03952446 -4.29332748 3.03952446 -5.32510376 3.07685852 C-12.90465513 3.34113217 -20.47255484 3.36080932 -28.05541992 3.26074219 C-28.05541992 2.93074219 -28.05541992 2.60074219 -28.05541992 2.26074219 C-18.62701248 0.45230052 -9.57037818 -0.05393515 0 0 Z " fill="#030C22" transform="translate(252.055419921875,74.7392578125)"/>
<path d="M0 0 C18.15 0 36.3 0 55 0 C55.495 0.99 55.495 0.99 56 2 C54.82308594 1.97905273 53.64617187 1.95810547 52.43359375 1.93652344 C21.43151231 1.21835715 21.43151231 1.21835715 -9.13867188 5.74633789 C-11 6 -11 6 -14 5 C-8.99067246 1.99440348 -5.67276511 1.70658112 0 2 C0 1.34 0 0.68 0 0 Z " fill="#2E4C7B" transform="translate(224,74)"/>
<path d="M0 0 C0.33 0 0.66 0 1 0 C0.85479535 1.6250563 0.70879131 3.25004117 0.5625 4.875 C0.48128906 5.77992188 0.40007812 6.68484375 0.31640625 7.6171875 C0.1485914 9.4113561 -0.0245598 11.20537724 -0.23852539 12.99462891 C-1.21250676 21.51219151 -1.34403231 30.06285008 -1.5625 38.625 C-1.60578915 40.21745694 -1.64940637 41.809905 -1.69335938 43.40234375 C-1.7993542 47.26813718 -1.90091325 51.13402359 -2 55 C-4.54956487 52.45043513 -4.23726715 50.81210813 -4.25224304 47.3359375 C-4.24505753 46.56507813 -4.23787201 45.79421875 -4.23046875 45 C-4.23001053 44.20851562 -4.22955231 43.41703125 -4.2290802 42.6015625 C-4.22605731 40.9270681 -4.2181699 39.25257652 -4.20581055 37.578125 C-4.18757326 35.01031569 -4.18530072 32.44286726 -4.18554688 29.875 C-4.18063094 28.24999687 -4.17480229 26.6249962 -4.16796875 25 C-4.16685593 24.22914063 -4.1657431 23.45828125 -4.16459656 22.6640625 C-4.11606989 17.23213978 -4.11606989 17.23213978 -3 15 C-2.72367142 11.95161333 -2.55341702 8.90345131 -2.37890625 5.84765625 C-2 3 -2 3 0 0 Z " fill="#284574" transform="translate(91,205)"/>
<path d="M0 0 C3 1 3 1 4 3 C4.16147257 7.84417698 3.95425132 12.22874338 3 17 C2.67 17 2.34 17 2 17 C1.67 12.38 1.34 7.76 1 3 C-24.41 3 -49.82 3 -76 3 C-76 2.67 -76 2.34 -76 2 C-74.61604538 1.9845388 -74.61604538 1.9845388 -73.20413208 1.96876526 C-64.52216525 1.87091214 -55.84026847 1.76841524 -47.15841866 1.66066074 C-42.69466778 1.60542398 -38.23091036 1.55200277 -33.76708984 1.50268555 C-29.46174175 1.4550531 -25.15647464 1.4027107 -20.85122299 1.34705925 C-19.20615523 1.32663061 -17.56106525 1.30791838 -15.9159584 1.29092598 C-13.61723018 1.26689319 -11.31865561 1.23683722 -9.02001953 1.20532227 C-7.7098587 1.18977798 -6.39969788 1.1742337 -5.04983521 1.15821838 C-2.08307645 1.20831928 -2.08307645 1.20831928 0 0 Z " fill="#466294" transform="translate(412,206)"/>
<path d="M0 0 C3.375 0.6875 3.375 0.6875 7 2 C7.72159424 3.64363134 8.39351421 5.31050386 9 7 C11.54775306 7.89386164 11.54775306 7.89386164 14 8 C14.33 9.65 14.66 11.3 15 13 C17.64 13.66 20.28 14.32 23 15 C22.34 17.31 21.68 19.62 21 22 C20.34 21.67 19.68 21.34 19 21 C19 20.34 19 19.68 19 19 C18.01 18.67 17.02 18.34 16 18 C16 17.34 16 16.68 16 16 C15.360625 15.731875 14.72125 15.46375 14.0625 15.1875 C12 14 12 14 11 11 C8.98491642 10.26676204 8.98491642 10.26676204 7 10 C7 9.34 7 8.68 7 8 C6.34 8 5.68 8 5 8 C3.7109375 6.25 3.7109375 6.25 2.375 4 C1.92898437 3.2575 1.48296875 2.515 1.0234375 1.75 C0.68570313 1.1725 0.34796875 0.595 0 0 Z " fill="#4F6690" transform="translate(71,386)"/>
<path d="M0 0 C1.64742188 0.02707031 1.64742188 0.02707031 3.328125 0.0546875 C4.12734375 0.07789063 4.9265625 0.10109375 5.75 0.125 C-3.6390923 6.38439487 -20.27795072 4.4088473 -31.21728516 4.33081055 C-33.90667002 4.31228181 -36.59571346 4.31030357 -39.28515625 4.31054688 C-41.01562796 4.30563911 -42.74609737 4.29981406 -44.4765625 4.29296875 C-45.27035309 4.29185593 -46.06414368 4.2907431 -46.88198853 4.28959656 C-51.11097786 4.25356195 -55.08426002 3.95673757 -59.25 3.125 C-59.25 2.795 -59.25 2.465 -59.25 2.125 C-58.10112305 2.13547363 -56.95224609 2.14594727 -55.76855469 2.15673828 C-51.45218091 2.19330032 -47.13582043 2.21603045 -42.81933594 2.23486328 C-40.9612395 2.24483921 -39.10315842 2.25842478 -37.24511719 2.27587891 C-27.88772935 2.36149548 -18.86863602 2.41587363 -9.65136719 0.57470703 C-6.36920037 -0.03994845 -3.33609046 -0.07252371 0 0 Z " fill="#06122A" transform="translate(285.25,409.875)"/>
<path d="M0 0 C0.99 0 1.98 0 3 0 C3 10.23 3 20.46 3 31 C2.01 31.33 1.02 31.66 0 32 C0 21.44 0 10.88 0 0 Z " fill="#516187" transform="translate(238,229)"/>
<path d="M0 0 C5.19209404 -0.21192221 9.126739 0.4087311 14 2 C14 2.66 14 3.32 14 4 C18.29 4.66 22.58 5.32 27 6 C27 6.66 27 7.32 27 8 C28.65 7.67 30.3 7.34 32 7 C32.495 8.485 32.495 8.485 33 10 C26.84514798 9.6642808 21.26199668 8.35646961 15.375 6.625 C14.65900635 6.41593018 13.9430127 6.20686035 13.20532227 5.99145508 C8.64850243 4.61564298 4.34268186 2.94907768 0 1 C0 0.67 0 0.34 0 0 Z " fill="#061025" transform="translate(192,402)"/>
<path d="M0 0 C-0.33 0.66 -0.66 1.32 -1 2 C-0.01 2.66 0.98 3.32 2 4 C0.02 4.33 -1.96 4.66 -4 5 C-5.32 8.63 -6.64 12.26 -8 16 C-8.66 16 -9.32 16 -10 16 C-10.0810206 13.89646505 -10.13919907 11.79204048 -10.1875 9.6875 C-10.22230469 8.51574219 -10.25710937 7.34398437 -10.29296875 6.13671875 C-10 3 -10 3 -8.71875 1.09375 C-5.93713336 -0.67636968 -3.19765855 -0.18099954 0 0 Z " fill="#34548F" transform="translate(249,205)"/>
<path d="M0 0 C-0.94359375 0.37511719 -1.8871875 0.75023437 -2.859375 1.13671875 C-10.93645633 4.35403139 -18.98617391 7.62732831 -27 11 C-27 10.34 -27 9.68 -27 9 C-27.66 8.67 -28.32 8.34 -29 8 C-28.01 8 -27.02 8 -26 8 C-26 7.34 -26 6.68 -26 6 C-23.36 5.67 -20.72 5.34 -18 5 C-17.67 4.01 -17.34 3.02 -17 2 C-13.9453125 1.015625 -13.9453125 1.015625 -10.125 0.25 C-8.24167969 -0.14445312 -8.24167969 -0.14445312 -6.3203125 -0.546875 C-3 -1 -3 -1 0 0 Z " fill="#536A97" transform="translate(413,426)"/>
<path d="M0 0 C2.0625 0.4375 2.0625 0.4375 4 1 C3.67 1.99 3.34 2.98 3 4 C2.34 4 1.68 4 1 4 C0.67 4.99 0.34 5.98 0 7 C-2.71318044 7.88082622 -5.28883517 8.57876229 -8.0625 9.1875 C-8.82111328 9.36474609 -9.57972656 9.54199219 -10.36132812 9.72460938 C-12.23821697 10.16136967 -14.1188016 10.58219156 -16 11 C-13.06166824 7.78249183 -10.17069535 5.81628904 -6.3125 3.8125 C-2.94126398 2.21263044 -2.94126398 2.21263044 0 0 Z " fill="#435F96" transform="translate(130,55)"/>
<path d="M0 0 C1 3 1 3 1 5 C1.66 5.33 2.32 5.66 3 6 C2.278125 6.845625 1.55625 7.69125 0.8125 8.5625 C-1.13208251 10.87512496 -2.87249204 13.24647889 -4.5625 15.75 C-6.40292428 18.38832975 -7.85377735 19.95125912 -11 21 C-9.31326082 16.50202887 -7.18326108 12.27113698 -5 8 C-4.34 8 -3.68 8 -3 8 C-2.87625 7.4225 -2.7525 6.845 -2.625 6.25 C-1.99351176 3.97664233 -1.11141809 2.0746471 0 0 Z " fill="#496599" transform="translate(52,129)"/>
<path d="M0 0 C0.66 0.99 1.32 1.98 2 3 C1.01 4.485 1.01 4.485 0 6 C-0.04125 6.969375 -0.0825 7.93875 -0.125 8.9375 C-1 12 -1 12 -2.83984375 13.27734375 C-4.86710671 14.27850524 -6.89204013 15.18370575 -9 16 C-9 12.63596525 -8.38119947 11.59907083 -6.625 8.8125 C-6.18414062 8.09707031 -5.74328125 7.38164063 -5.2890625 6.64453125 C-4.65097656 5.83048828 -4.65097656 5.83048828 -4 5 C-3.34 5 -2.68 5 -2 5 C-1.34 3.35 -0.68 1.7 0 0 Z " fill="#4B69A2" transform="translate(63,113)"/>
<path d="M0 0 C-6.76200826 4.63444702 -11.95387744 5.67927833 -20.0625 5.3125 C-21.50399414 5.27866211 -21.50399414 5.27866211 -22.97460938 5.24414062 C-25.3181018 5.18584479 -27.65817223 5.10410259 -30 5 C-30 4.67 -30 4.34 -30 4 C-28.44152344 3.83564453 -28.44152344 3.83564453 -26.8515625 3.66796875 C-19.64919035 2.86319097 -12.86123499 2.01349752 -6.015625 -0.51171875 C-3.64882238 -1.0850721 -2.31023689 -0.65400531 0 0 Z " fill="#304A82" transform="translate(302,409)"/>
<path d="M0 0 C0.99 0.33 1.98 0.66 3 1 C2.360625 1.763125 1.72125 2.52625 1.0625 3.3125 C-1.14232781 5.88246713 -1.14232781 5.88246713 -2 9 C-3.64429829 10.68873879 -5.31384218 12.35305515 -7 14 C-8.35555293 15.64864545 -9.69631653 17.31003995 -11 19 C-10.45400145 15.0870104 -9.89829296 11.49685546 -8 8 C-5.875 7.1875 -5.875 7.1875 -4 7 C-4 6.01 -4 5.02 -4 4 C-3.34 4 -2.68 4 -2 4 C-1.34 2.68 -0.68 1.36 0 0 Z " fill="#324F81" transform="translate(126,132)"/>
<path d="M0 0 C0.66 0 1.32 0 2 0 C2 0.66 2 1.32 2 2 C2.66 2.33 3.32 2.66 4 3 C3.01 3 2.02 3 1 3 C0.67 4.98 0.34 6.96 0 9 C-1.32 9.33 -2.64 9.66 -4 10 C-4 9.34 -4 8.68 -4 8 C-4.66 8 -5.32 8 -6 8 C-6.33 8.66 -6.66 9.32 -7 10 C-8.32 9.67 -9.64 9.34 -11 9 C-9.93458984 8.15115234 -9.93458984 8.15115234 -8.84765625 7.28515625 C-7.92855469 6.55167969 -7.00945312 5.81820312 -6.0625 5.0625 C-5.14597656 4.33160156 -4.22945313 3.60070312 -3.28515625 2.84765625 C-1.59148731 1.48061289 -1.59148731 1.48061289 0 0 Z " fill="#46649F" transform="translate(106,70)"/>
<path d="M0 0 C0.33 0.66 0.66 1.32 1 2 C0.34 2 -0.32 2 -1 2 C-1.33 2.99 -1.66 3.98 -2 5 C-2.66 5 -3.32 5 -4 5 C-4 5.66 -4 6.32 -4 7 C-7.47325181 8.1577506 -10.36067448 8.06866652 -14 8 C-14 7.34 -14 6.68 -14 6 C-12.23002526 5.18563132 -10.45898848 4.3735706 -8.6875 3.5625 C-7.70136719 3.11003906 -6.71523437 2.65757813 -5.69921875 2.19140625 C-3 1 -3 1 0 0 Z " fill="#425B8B" transform="translate(148,47)"/>
<path d="M0 0 C0 0.66 0 1.32 0 2 C-1.0725 2.12375 -2.145 2.2475 -3.25 2.375 C-6.79680851 2.73223877 -6.79680851 2.73223877 -8.78125 4.0625 C-12.03779701 5.43850578 -14.76020948 4.94812875 -18.25 4.625 C-19.51328125 4.51414062 -20.7765625 4.40328125 -22.078125 4.2890625 C-23.04234375 4.19367187 -24.0065625 4.09828125 -25 4 C-25 3.67 -25 3.34 -25 3 C-21.95919579 2.49420286 -18.91753354 1.99519241 -15.875 1.5 C-14.59109375 1.28537109 -14.59109375 1.28537109 -13.28125 1.06640625 C-8.80328495 0.34304266 -4.55436565 -0.17918816 0 0 Z " fill="#7789AD" transform="translate(226,27)"/>
<path d="M0 0 C5.45479185 0.56820748 9.91059256 1.94637945 15 4 C15 4.33 15 4.66 15 5 C13.741875 5.020625 12.48375 5.04125 11.1875 5.0625 C10.47980469 5.07410156 9.77210938 5.08570313 9.04296875 5.09765625 C7 5 7 5 4 4 C3.67 4.66 3.34 5.32 3 6 C1.68 5.01 0.36 4.02 -1 3 C-0.67 2.01 -0.34 1.02 0 0 Z " fill="#4B6596" transform="translate(319,33)"/>
<path d="M0 0 C10.3905794 -0.12288464 20.63946908 0.16639406 31 1 C31 1.33 31 1.66 31 2 C29.75283203 2.09087891 29.75283203 2.09087891 28.48046875 2.18359375 C26.85044922 2.30927734 26.85044922 2.30927734 25.1875 2.4375 C23.56908203 2.55931641 23.56908203 2.55931641 21.91796875 2.68359375 C18.94010095 2.90212461 18.94010095 2.90212461 16 4 C13.23524674 3.59283242 10.54525264 3.12337063 7.8125 2.5625 C7.06291016 2.41490234 6.31332031 2.26730469 5.54101562 2.11523438 C3.69265826 1.75027209 1.84613839 1.37602589 0 1 C0 0.67 0 0.34 0 0 Z " fill="#314F88" transform="translate(265,28)"/>
<path d="M0 0 C0.33 0 0.66 0 1 0 C1.03738281 1.24136719 1.07476562 2.48273438 1.11328125 3.76171875 C1.1789595 5.40367511 1.2454062 7.04560087 1.3125 8.6875 C1.33505859 9.50412109 1.35761719 10.32074219 1.38085938 11.16210938 C1.59497989 15.97008829 2.13001863 18.97587063 5 23 C5 23.66 5 24.32 5 25 C5.66 25.33 6.32 25.66 7 26 C4 26 4 26 1.9375 24.9375 C1.298125 24.628125 0.65875 24.31875 0 24 C-0.66 24.33 -1.32 24.66 -2 25 C-1.505 23.515 -1.505 23.515 -1 22 C-0.85222064 20.30132812 -0.75252934 18.59822511 -0.68359375 16.89453125 C-0.62075195 15.42016602 -0.62075195 15.42016602 -0.55664062 13.91601562 C-0.51732422 12.89185547 -0.47800781 11.86769531 -0.4375 10.8125 C-0.39431641 9.77673828 -0.35113281 8.74097656 -0.30664062 7.67382812 C-0.20055634 5.1160181 -0.09849854 2.55811155 0 0 Z " fill="#2F4977" transform="translate(323,287)"/>
<path d="M0 0 C3.3 0 6.6 0 10 0 C10.28875 0.78375 10.5775 1.5675 10.875 2.375 C11.84912254 5.09671632 11.84912254 5.09671632 14 7 C14.33 7.99 14.66 8.98 15 10 C11.58809167 8.38340534 8.43782465 6.45729895 5.25 4.4375 C4.26515625 3.81746094 3.2803125 3.19742188 2.265625 2.55859375 C1.51796875 2.04425781 0.7703125 1.52992187 0 1 C0 0.67 0 0.34 0 0 Z " fill="#2E4C85" transform="translate(341,98)"/>
<path d="M0 0 C2.60578866 0.08695958 5.2081279 0.19381408 7.8125 0.3125 C8.55048828 0.33505859 9.28847656 0.35761719 10.04882812 0.38085938 C15.54974762 0.6546608 15.54974762 0.6546608 18.01171875 2.54296875 C18.50091797 3.26419922 18.50091797 3.26419922 19 4 C13.67721289 6.66139355 5.44480991 3.48494816 0 2 C0 1.34 0 0.68 0 0 Z " fill="#506693" transform="translate(181,452)"/>
<path d="M0 0 C1.32 0.33 2.64 0.66 4 1 C4 1.66 4 2.32 4 3 C4.99 3 5.98 3 7 3 C7.103125 3.639375 7.20625 4.27875 7.3125 4.9375 C7.539375 5.618125 7.76625 6.29875 8 7 C8.99 7.33 9.98 7.66 11 8 C11.33 8.99 11.66 9.98 12 11 C12.99 11.33 13.98 11.66 15 12 C15.33 13.65 15.66 15.3 16 17 C10.06025076 12.19764955 4.88300149 6.87953241 0 1 C0 0.67 0 0.34 0 0 Z " fill="#030C21" transform="translate(128,355)"/>
<path d="M0 0 C7.53620355 3.25800939 12.30985999 11.54031999 17 18 C16.67 18.66 16.34 19.32 16 20 C15.39671875 19.25234375 14.7934375 18.5046875 14.171875 17.734375 C13.37265625 16.74953125 12.5734375 15.7646875 11.75 14.75 C10.96109375 13.77546875 10.1721875 12.8009375 9.359375 11.796875 C7.09877702 9.03712984 7.09877702 9.03712984 4.8125 6.8125 C2.74175908 4.74175908 1.41736256 2.55125261 0 0 Z " fill="#334E81" transform="translate(349,336)"/>
<path d="M0 0 C0.66 0.33 1.32 0.66 2 1 C0.75 3 0.75 3 -1 5 C-2.32 5 -3.64 5 -5 5 C-5.33 5.99 -5.66 6.98 -6 8 C-9.91390601 9.47694566 -12.99434629 10.60226148 -17 9 C-15.02 8.67 -13.04 8.34 -11 8 C-11 7.34 -11 6.68 -11 6 C-9.21385682 4.96953278 -7.42089982 3.95086764 -5.625 2.9375 C-4.62726563 2.36902344 -3.62953125 1.80054688 -2.6015625 1.21484375 C-1.74304688 0.81394531 -0.88453125 0.41304688 0 0 Z " fill="#2E4A7D" transform="translate(341,389)"/>
<path d="M0 0 C0.99 1.32 1.98 2.64 3 4 C2 5 1 6 0 7 C0.66 7.66 1.32 8.32 2 9 C1.34 10.32 0.68 11.64 0 13 C-0.66 13 -1.32 13 -2 13 C-2.33 14.65 -2.66 16.3 -3 18 C-3.33 17.01 -3.66 16.02 -4 15 C-3.67 14.34 -3.34 13.68 -3 13 C-3.66 12.67 -4.32 12.34 -5 12 C-3.35 8.04 -1.7 4.08 0 0 Z " fill="#4C6AA0" transform="translate(36,160)"/>
<path d="M0 0 C-6.9773247 4.6515498 -16.93592821 3.10193349 -25 3 C-25 2.67 -25 2.34 -25 2 C-16.58173087 0.30117812 -8.58077055 -0.24911914 0 0 Z " fill="#020A1E" transform="translate(291,410)"/>
<path d="M0 0 C1.9375 0.3125 1.9375 0.3125 4 1 C4.33 1.99 4.66 2.98 5 4 C5.99 4 6.98 4 8 4 C8.12375 5.134375 8.2475 6.26875 8.375 7.4375 C8.58125 8.613125 8.7875 9.78875 9 11 C9.66 11.33 10.32 11.66 11 12 C10.01 12 9.02 12 8 12 C5.95703125 9.62890625 5.95703125 9.62890625 3.8125 6.5625 C3.09707031 5.55316406 2.38164063 4.54382813 1.64453125 3.50390625 C0 1 0 1 0 0 Z " fill="#5E719C" transform="translate(61,373)"/>
<path d="M0 0 C5.17226615 4.6873662 8.98925493 10.31728181 13 16 C12.34 16.33 11.68 16.66 11 17 C10.01830524 15.87720538 9.03972702 14.75168527 8.0625 13.625 C7.51722656 12.99851562 6.97195312 12.37203125 6.41015625 11.7265625 C5 10 5 10 4 8 C3.01 7.67 2.02 7.34 1 7 C0.67 4.69 0.34 2.38 0 0 Z " fill="#325080" transform="translate(112,335)"/>
<path d="M0 0 C0 0.66 0 1.32 0 2 C-2.31 2.33 -4.62 2.66 -7 3 C-7.33 3.99 -7.66 4.98 -8 6 C-12.43028188 7.65049717 -16.29050618 8.22973141 -21 8 C-5.21428571 0 -5.21428571 0 0 0 Z " fill="#5F749E" transform="translate(170,39)"/>
<path d="M0 0 C11.385 2.97 11.385 2.97 23 6 C20 8 20 8 18.29296875 7.7421875 C17.53628906 7.49726563 16.77960938 7.25234375 16 7 C14.79988281 6.71382813 13.59976563 6.42765625 12.36328125 6.1328125 C11.01286113 5.79751757 9.66260471 5.46156273 8.3125 5.125 C7.62349609 4.96386719 6.93449219 4.80273438 6.22460938 4.63671875 C4.23828125 4.1328125 4.23828125 4.1328125 1 3 C0.67 2.01 0.34 1.02 0 0 Z " fill="#35538A" transform="translate(198,405)"/>
<path d="M0 0 C-3.75 3 -3.75 3 -6 3 C-6 3.66 -6 4.32 -6 5 C-10.95 6.485 -10.95 6.485 -16 8 C-16 7.34 -16 6.68 -16 6 C-11.14559478 2.29683713 -6.30376463 -0.99533126 0 0 Z " fill="#020719" transform="translate(336,392)"/>
<path d="M0 0 C0.33 0.99 0.66 1.98 1 3 C0.360625 3.433125 -0.27875 3.86625 -0.9375 4.3125 C-3.26746003 5.91239177 -3.26746003 5.91239177 -4 9 C-4.99 9 -5.98 9 -7 9 C-7.2475 9.804375 -7.495 10.60875 -7.75 11.4375 C-8.1625 12.283125 -8.575 13.12875 -9 14 C-11.078125 14.66015625 -11.078125 14.66015625 -13 15 C-3.64039409 2.42692939 -3.64039409 2.42692939 0 0 Z " fill="#081127" transform="translate(137,124)"/>
<path d="M0 0 C2 2 2 2 2 4 C-1.72965139 6.03435531 -3.66905042 7 -8 7 C-8 6.01 -8 5.02 -8 4 C-7.34 4 -6.68 4 -6 4 C-6 3.34 -6 2.68 -6 2 C-4.02 1.34 -2.04 0.68 0 0 Z " fill="#445C90" transform="translate(116,65)"/>
<path d="M0 0 C2 3 2 3 1.609375 5.2265625 C1.32578125 6.01804688 1.0421875 6.80953125 0.75 7.625 C0.47671875 8.42164063 0.2034375 9.21828125 -0.078125 10.0390625 C-1 12 -1 12 -3 13 C-3.65772428 16.02934491 -3.65772428 16.02934491 -4 19 C-4.66 18.67 -5.32 18.34 -6 18 C-4.83805848 11.53287812 -2.8751252 5.90377651 0 0 Z " fill="#061228" transform="translate(102,174)"/>
<path d="M0 0 C3 1 3 1 6 3 C3.94921875 3.22786458 1.8984375 3.45572917 -0.15234375 3.68359375 C-2.01140229 3.81886614 -2.01140229 3.81886614 -3 5 C-4.68608966 5.07205511 -6.37500659 5.08386068 -8.0625 5.0625 C-8.98160156 5.05347656 -9.90070313 5.04445313 -10.84765625 5.03515625 C-11.55792969 5.02355469 -12.26820313 5.01195312 -13 5 C-13 4.34 -13 3.68 -13 3 C-11.96939453 2.92652344 -11.96939453 2.92652344 -10.91796875 2.8515625 C-9.56638672 2.73941406 -9.56638672 2.73941406 -8.1875 2.625 C-7.29417969 2.55539062 -6.40085937 2.48578125 -5.48046875 2.4140625 C-2.75601501 2.13354964 -2.75601501 2.13354964 0 0 Z " fill="#54678F" transform="translate(327,451)"/>
<path d="M0 0 C0.33 0 0.66 0 1 0 C1.20092379 13.59584296 1.20092379 13.59584296 0 19 C-0.66 19.33 -1.32 19.66 -2 20 C-2.22731216 13.06697907 -1.42002108 6.7831364 0 0 Z " fill="#030E23" transform="translate(92,205)"/>
<path d="M0 0 C-0.556875 0.17015625 -1.11375 0.3403125 -1.6875 0.515625 C-7.07961048 2.22798441 -12.01049513 4.34371683 -17 7 C-17.99 7.495 -17.99 7.495 -19 8 C-19.66 7.34 -20.32 6.68 -21 6 C-4.99223718 -1.4626937 -4.99223718 -1.4626937 0 0 Z " fill="#0E1D3D" transform="translate(207,83)"/>
<path d="M0 0 C-0.95336021 1.31611677 -1.91285774 2.62778961 -2.875 3.9375 C-3.40867187 4.66839844 -3.94234375 5.39929688 -4.4921875 6.15234375 C-6 8 -6 8 -8 9 C-9 6 -9 6 -8.1875 3.375 C-6.22389531 -0.55220939 -4.0680787 -0.1070547 0 0 Z " fill="#566C98" transform="translate(401,91)"/>
<path d="M0 0 C1.6274637 0.61855631 3.25190356 1.24507305 4.875 1.875 C5.77992188 2.22304688 6.68484375 2.57109375 7.6171875 2.9296875 C10 4 10 4 12 6 C11.01 6.33 10.02 6.66 9 7 C8.67 6.67 8.34 6.34 8 6 C5.32941149 5.85884839 2.67567762 5.95752893 0 6 C0 4.02 0 2.04 0 0 Z " fill="#466292" transform="translate(362,48)"/>
<path d="M0 0 C0.33 0 0.66 0 1 0 C0.3741355 7.00435592 -0.28674095 14.00399099 -1 21 C-1.33 21 -1.66 21 -2 21 C-2.05390357 18.06225537 -2.0936255 15.12549768 -2.125 12.1875 C-2.14175781 11.35412109 -2.15851563 10.52074219 -2.17578125 9.66210938 C-2.18222656 8.85966797 -2.18867187 8.05722656 -2.1953125 7.23046875 C-2.20578613 6.49207764 -2.21625977 5.75368652 -2.22705078 4.99291992 C-2 3 -2 3 0 0 Z " fill="#2A497A" transform="translate(91,205)"/>
<path d="M0 0 C-0.33 0.99 -0.66 1.98 -1 3 C-3.64 3.33 -6.28 3.66 -9 4 C-9 7.63 -9 11.26 -9 15 C-9.33 15 -9.66 15 -10 15 C-10.08107583 13.06318839 -10.13922475 11.1254066 -10.1875 9.1875 C-10.22230469 8.10855469 -10.25710937 7.02960938 -10.29296875 5.91796875 C-10 3 -10 3 -8.71875 1.125 C-5.94481612 -0.69066581 -3.21228565 -0.18182749 0 0 Z " fill="#7582A4" transform="translate(249,205)"/>
<path d="M0 0 C4.72065967 1.54269924 9.41664092 3.07794619 14 5 C13.01 5.66 12.02 6.32 11 7 C8.5546875 6.42578125 8.5546875 6.42578125 5.875 5.3125 C4.98554688 4.95800781 4.09609375 4.60351562 3.1796875 4.23828125 C1 3 1 3 0 0 Z " fill="#506793" transform="translate(345,41)"/>
<path d="M0 0 C2.31 0.33 4.62 0.66 7 1 C7 1.66 7 2.32 7 3 C8.093125 3.103125 9.18625 3.20625 10.3125 3.3125 C13.85559629 3.97307727 14.93243723 4.2027092 17 7 C16.01 7.495 16.01 7.495 15 8 C12.39525962 6.92591043 9.90033962 5.79954367 7.375 4.5625 C6.66859375 4.22412109 5.9621875 3.88574219 5.234375 3.53710938 C3.48618616 2.69845121 1.74264314 1.85012153 0 1 C0 0.67 0 0.34 0 0 Z " fill="#5F71A1" transform="translate(134,435)"/>
<path d="M0 0 C0.66 0 1.32 0 2 0 C1.09255778 3.78260126 0.01058149 7.51152256 -1.0625 11.25 C-1.42472656 12.51328125 -1.78695312 13.7765625 -2.16015625 15.078125 C-2.43730469 16.04234375 -2.71445313 17.0065625 -3 18 C-4.4434948 15.69354635 -5.09746152 14.54480989 -4.609375 11.81640625 C-4.32578125 11.07261719 -4.0421875 10.32882813 -3.75 9.5625 C-3.45996094 8.78132812 -3.16992188 8.00015625 -2.87109375 7.1953125 C-2.58363281 6.47085938 -2.29617187 5.74640625 -2 5 C-1.4121875 3.4840625 -1.4121875 3.4840625 -0.8125 1.9375 C-0.544375 1.298125 -0.27625 0.65875 0 0 Z " fill="#304F85" transform="translate(98,179)"/>
<path d="M0 0 C0.99 0.33 1.98 0.66 3 1 C2.0479279 2.00596297 1.08812654 3.00461563 0.125 4 C-0.40867188 4.556875 -0.94234375 5.11375 -1.4921875 5.6875 C-3 7 -3 7 -5 7 C-5.66 8.32 -6.32 9.64 -7 11 C-7.33 10.01 -7.66 9.02 -8 8 C-5.33333333 5.33333333 -2.66666667 2.66666667 0 0 Z " fill="#354E83" transform="translate(139,119)"/>
<path d="M0 0 C3.59634744 3.49359465 6.83451967 7.11098131 10 11 C5.125 9.25 5.125 9.25 4 7 C2.35636866 6.27840576 0.68949614 5.60648579 -1 5 C-0.67 3.35 -0.34 1.7 0 0 Z " fill="#324F84" transform="translate(129,357)"/>
<path d="M0 0 C0 0.66 0 1.32 0 2 C2.31 2 4.62 2 7 2 C3.60022418 5.39977582 -0.38905059 5.39100668 -5 6 C-4.67 5.01 -4.34 4.02 -4 3 C-4.99 2.34 -5.98 1.68 -7 1 C-2.25 0 -2.25 0 0 0 Z " fill="#4D6AA4" transform="translate(190,33)"/>
<path d="M0 0 C6.64615385 1.47692308 6.64615385 1.47692308 8.4375 4.125 C8.7159375 5.053125 8.7159375 5.053125 9 6 C7.02 6.99 7.02 6.99 5 8 C2.525 4.04 2.525 4.04 0 0 Z " fill="#566D9A" transform="translate(71,386)"/>
<path d="M0 0 C2.4375 0.8125 2.4375 0.8125 5 2 C5.33 2.99 5.66 3.98 6 5 C6.99 5 7.98 5 9 5 C9.433125 6.175625 9.433125 6.175625 9.875 7.375 C10.84912254 10.09671632 10.84912254 10.09671632 13 12 C12.01 12 11.02 12 10 12 C8.53515625 10.390625 8.53515625 10.390625 7.0625 8.25 C4.90625492 5.21727624 2.74613648 2.53489521 0 0 Z " fill="#325184" transform="translate(331,317)"/>
<path d="M0 0 C0 0.66 0 1.32 0 2 C-3.75899378 5.51647805 -7.71223057 8.66951441 -13 9 C-7.85714286 3.42857143 -7.85714286 3.42857143 -4 3 C-4 2.34 -4 1.68 -4 1 C-2 0 -2 0 0 0 Z " fill="#071329" transform="translate(172,97)"/>
<path d="M0 0 C1.65 1.65 3.3 3.3 5 5 C3.25 9.875 3.25 9.875 1 11 C0.67 7.37 0.34 3.74 0 0 Z " fill="#7788AC" transform="translate(405,74)"/>
<path d="M0 0 C2.68863169 2.61181364 5.24322221 5.22922153 7.625 8.125 C9.35087132 10.21421265 11.03907374 12.14228039 13 14 C10.03824877 13.38722388 8.61941217 12.74627478 6 11 C4.96210419 9.35666496 3.96432076 7.68756133 3 6 C2.443125 5.278125 1.88625 4.55625 1.3125 3.8125 C0 2 0 2 0 0 Z " fill="#081329" transform="translate(337,324)"/>
<path d="M0 0 C3.47695381 3.63499716 4.48364069 8.1117985 5 13 C4.546875 15.28125 4.546875 15.28125 4 17 C-0.59225513 5.47835991 -0.59225513 5.47835991 0 0 Z " fill="#07122D" transform="translate(96,293)"/>
<path d="M0 0 C-5.71735105 2.45029331 -9.79029227 3.33266291 -16 3 C-13.2403139 1.16020927 -11.70258118 0.51676779 -8.5625 -0.1875 C-7.41974609 -0.45626953 -7.41974609 -0.45626953 -6.25390625 -0.73046875 C-3.87041504 -1.0154963 -2.26895796 -0.72875415 0 0 Z " fill="#081129" transform="translate(223,79)"/>
<path d="M0 0 C0.66 0.66 1.32 1.32 2 2 C0.93106782 3.03590338 -0.15578488 4.05333942 -1.25 5.0625 C-2.15492188 5.91521484 -2.15492188 5.91521484 -3.078125 6.78515625 C-4.02945312 7.38650391 -4.02945312 7.38650391 -5 8 C-6.32 7.67 -7.64 7.34 -9 7 C-6.03 4.69 -3.06 2.38 0 0 Z " fill="#304D82" transform="translate(361,374)"/>
<path d="M0 0 C0.66 0.33 1.32 0.66 2 1 C1.02526874 2.66926454 0.04510211 4.33535642 -0.9375 6 C-1.75541016 7.3921875 -1.75541016 7.3921875 -2.58984375 8.8125 C-3.05519531 9.534375 -3.52054687 10.25625 -4 11 C-4.33 11 -4.66 11 -5 11 C-5 8.69 -5 6.38 -5 4 C-4.34 4 -3.68 4 -3 4 C-3 3.34 -3 2.68 -3 2 C-2.01 1.34 -1.02 0.68 0 0 Z " fill="#315284" transform="translate(113,151)"/>
<path d="M0 0 C0.66 0.33 1.32 0.66 2 1 C-0.22222392 5.08889201 -1.29408826 6.7411657 -5.75 8.375 C-6.8225 8.58125 -7.895 8.7875 -9 9 C-6.31941902 5.42589203 -3.57410797 2.68058098 0 0 Z " fill="#081428" transform="translate(153,109)"/>
<path d="M0 0 C3.63 2.31 7.26 4.62 11 7 C9 8 9 8 6 7.125 C3 6 3 6 1 5 C0.67 3.35 0.34 1.7 0 0 Z " fill="#687DA5" transform="translate(394,66)"/>
<path d="M0 0 C0.33 0 0.66 0 1 0 C1.3125 3.25 1.3125 3.25 1 7 C-1.3125 9.5 -1.3125 9.5 -4 11 C-4.99 10.67 -5.98 10.34 -7 10 C-6.21625 9.278125 -5.4325 8.55625 -4.625 7.8125 C-2.15587562 5.16700959 -1.06739722 3.39626389 0 0 Z " fill="#2D4879" transform="translate(371,361)"/>
<path d="M0 0 C2.52394612 3.12488567 4.39701907 6.31314387 6 10 C5.67 10.66 5.34 11.32 5 12 C4.34 12 3.68 12 3 12 C3 10.35 3 8.7 3 7 C2.01 7 1.02 7 0 7 C0 4.69 0 2.38 0 0 Z " fill="#2C4676" transform="translate(105,320)"/>
<path d="M0 0 C2.97 0.33 5.94 0.66 9 1 C9.33 2.65 9.66 4.3 10 6 C5.56909529 4.79157144 3.01887244 3.48331435 0 0 Z " fill="#2C4677" transform="translate(328,90)"/>
<path d="M0 0 C-2.61447847 2.61447847 -5.61689028 4.52970337 -9 6 C-10.32 6 -11.64 6 -13 6 C-13 5.34 -13 4.68 -13 4 C-4.738041 -0.59225513 -4.738041 -0.59225513 0 0 Z " fill="#304F7D" transform="translate(192,86)"/>
<path d="M0 0 C0 2 0 2 -1.5 3.5625 C-4.9985316 5.57415567 -7.98949133 5.66579094 -12 6 C-8.59780735 3.25207517 -4.51535412 0 0 0 Z " fill="#2D4B7C" transform="translate(324,399)"/>
<path d="M0 0 C1.43088528 2.86177057 0.59991697 4.93375773 0 8 C-1.875 8.625 -1.875 8.625 -4 9 C-4.66 8.34 -5.32 7.68 -6 7 C-4.02 4.69 -2.04 2.38 0 0 Z " fill="#5D74A0" transform="translate(77,96)"/>
<path d="M0 0 C1.65 0 3.3 0 5 0 C5.33 0.66 5.66 1.32 6 2 C9.02934491 2.65772428 9.02934491 2.65772428 12 3 C11.67 3.99 11.34 4.98 11 6 C6.49197399 4.74194623 3.5087188 3.09592835 0 0 Z " fill="#6173A1" transform="translate(123,429)"/>
<path d="M0 0 C0.66 0.33 1.32 0.66 2 1 C0.3125 4 0.3125 4 -2 7 C-4.75 7.375 -4.75 7.375 -7 7 C-4.66666667 4.66666667 -2.33333333 2.33333333 0 0 Z " fill="#2F4B7C" transform="translate(350,382)"/>
<path d="M0 0 C0.66 0 1.32 0 2 0 C3.05404945 3.98196457 2.84098656 6.98195309 2 11 C1.34 11 0.68 11 0 11 C0 7.37 0 3.74 0 0 Z " fill="#3B5B8F" transform="translate(24,277)"/>
<path d="M0 0 C4 0 4 0 6.75 2.375 C9 5 9 5 9 7 C9.66 7.33 10.32 7.66 11 8 C7.24026115 8 6.54322371 7.03457593 3.8125 4.5625 C3.09707031 3.92441406 2.38164062 3.28632812 1.64453125 2.62890625 C1.10183594 2.09136719 0.55914062 1.55382812 0 1 C0 0.67 0 0.34 0 0 Z " fill="#334D7F" transform="translate(356,108)"/>
<path d="M0 0 C0.66 0 1.32 0 2 0 C2 1.32 2 2.64 2 4 C1.34 4 0.68 4 0 4 C-0.33 4.99 -0.66 5.98 -1 7 C-2.32 6.67 -3.64 6.34 -5 6 C-3.4198632 3.84526801 -1.89353366 1.89353366 0 0 Z " fill="#2F4E8B" transform="translate(381,107)"/>
<path d="M0 0 C1.3303125 0.37125 1.3303125 0.37125 2.6875 0.75 C1.35416667 1.41666667 0.02083333 2.08333333 -1.3125 2.75 C-1.993125 3.141875 -2.67375 3.53375 -3.375 3.9375 C-5.3125 4.75 -5.3125 4.75 -8.3125 3.75 C-4.12788462 -0.31153846 -4.12788462 -0.31153846 0 0 Z " fill="#566B9D" transform="translate(371.3125,440.25)"/>
<path d="M0 0 C6.75 -0.125 6.75 -0.125 9 1 C9 1.66 9 2.32 9 3 C9.99 3.33 10.98 3.66 12 4 C10 5 10 5 7.6171875 4.22265625 C6.71226562 3.83980469 5.80734375 3.45695312 4.875 3.0625 C3.50988281 2.49208984 3.50988281 2.49208984 2.1171875 1.91015625 C1.41851562 1.60980469 0.71984375 1.30945313 0 1 C0 0.67 0 0.34 0 0 Z " fill="#09172F" transform="translate(192,402)"/>
<path d="M0 0 C2.31 0.33 4.62 0.66 7 1 C6.34 3.31 5.68 5.62 5 8 C4.34 7.67 3.68 7.34 3 7 C2.65846063 5.33499557 2.32550502 3.66821323 2 2 C1.34 1.34 0.68 0.68 0 0 Z " fill="#4363A3" transform="translate(87,400)"/>
<path d="M0 0 C-3.7559214 3.42931954 -8.23466745 4.56429083 -13 6 C-13.33 5.34 -13.66 4.68 -14 4 C-12.6078125 3.566875 -12.6078125 3.566875 -11.1875 3.125 C-2.0234375 -0.109375 -2.0234375 -0.109375 0 0 Z " fill="#050F26" transform="translate(320,400)"/>
<path d="M0 0 C2.83374881 3.20336822 3.5205537 5.78087253 4 10 C3.01 10.495 3.01 10.495 2 11 C-1.07692308 4.6 -1.07692308 4.6 -0.6875 1.5625 C-0.460625 1.046875 -0.23375 0.53125 0 0 Z " fill="#576D9E" transform="translate(36,323)"/>
<path d="M0 0 C0.33 0 0.66 0 1 0 C1.12375 0.763125 1.2475 1.52625 1.375 2.3125 C1.88102792 5.20267136 1.88102792 5.20267136 4 8 C3.34 8.66 2.68 9.32 2 10 C1.34 11.32 0.68 12.64 0 14 C0 9.38 0 4.76 0 0 Z " fill="#496296" transform="translate(24,200)"/>
<path d="M0 0 C1.06544301 3.19632902 1.19353531 3.97025652 0 7 C-2.0625 9.25 -2.0625 9.25 -4 11 C-4 7.80389448 -3.45328458 6.58282374 -2 3.8125 C-1.62875 3.09707031 -1.2575 2.38164062 -0.875 1.64453125 C-0.441875 0.83048828 -0.441875 0.83048828 0 0 Z " fill="#6C84AA" transform="translate(46,139)"/>
<path d="M0 0 C2.97 0 5.94 0 9 0 C8.34 1.32 7.68 2.64 7 4 C7.99 4.33 8.98 4.66 10 5 C9.01 5.495 9.01 5.495 8 6 C6.0546875 5.0390625 6.0546875 5.0390625 3.875 3.625 C3.15054687 3.16351563 2.42609375 2.70203125 1.6796875 2.2265625 C1.12539063 1.82179688 0.57109375 1.41703125 0 1 C0 0.67 0 0.34 0 0 Z " fill="#2B487A" transform="translate(341,98)"/>
<path d="M0 0 C0.33 0.99 0.66 1.98 1 3 C-2.3340947 5.19097652 -5.04179141 6.43454163 -9 7 C-6.24479785 4.04070881 -3.53372712 1.96318174 0 0 Z " fill="#6D7CA0" transform="translate(123,59)"/>
<path d="M0 0 C-0.99 0 -1.98 0 -3 0 C-3 0.99 -3 1.98 -3 3 C-4.65 3 -6.3 3 -8 3 C-8 1.68 -8 0.36 -8 -1 C-3.375 -2.25 -3.375 -2.25 0 0 Z " fill="#3A5F96" transform="translate(344,41)"/>
<path d="M0 0 C0.99 0.33 1.98 0.66 3 1 C1 3 1 3 -2.4765625 3.1953125 C-3.85950968 3.18201493 -5.24238654 3.15816232 -6.625 3.125 C-7.33140625 3.11597656 -8.0378125 3.10695312 -8.765625 3.09765625 C-10.51056098 3.07407603 -12.25532295 3.03820461 -14 3 C-14 2.67 -14 2.34 -14 2 C-13.15695312 1.93941406 -12.31390625 1.87882813 -11.4453125 1.81640625 C-10.34960938 1.73261719 -9.25390625 1.64882812 -8.125 1.5625 C-7.03445313 1.48128906 -5.94390625 1.40007812 -4.8203125 1.31640625 C-2.05271029 1.16998297 -2.05271029 1.16998297 0 0 Z " fill="#465F91" transform="translate(412,206)"/>
<path d="M0 0 C0.75 1.6875 0.75 1.6875 1 4 C-0.8125 6.75 -0.8125 6.75 -3 9 C-3.66 9 -4.32 9 -5 9 C-3.7508258 5.54074837 -2.32472205 2.85306797 0 0 Z " fill="#050C21" transform="translate(121,142)"/>
<path d="M0 0 C0.87324262 2.44507934 1.10151327 3.67700322 0.3125 6.1875 C-1 8 -1 8 -3.125 8.75 C-4.053125 8.87375 -4.053125 8.87375 -5 9 C-3.7508258 5.54074837 -2.32472205 2.85306797 0 0 Z " fill="#6582A9" transform="translate(58,120)"/>
<path d="M0 0 C0.33 0.66 0.66 1.32 1 2 C0.67 2.99 0.34 3.98 0 5 C-1.32303717 5.3721042 -2.65737935 5.70630173 -4 6 C-4.33 6.66 -4.66 7.32 -5 8 C-6.32 7.67 -7.64 7.34 -9 7 C-6.03 4.69 -3.06 2.38 0 0 Z " fill="#6F84AB" transform="translate(104,72)"/>
<path d="M0 0 C4.455 0.99 4.455 0.99 9 2 C8.67 2.99 8.34 3.98 8 5 C4.35446828 3.7191375 2.83328987 2.83328987 0 0 Z " fill="#5F78A4" transform="translate(110,421)"/>
<path d="M0 0 C4.75 0.875 4.75 0.875 7 2 C7 2.66 7 3.32 7 4 C5.02 4 3.04 4 1 4 C0.67 2.68 0.34 1.36 0 0 Z " fill="#3A538A" transform="translate(95,408)"/>
<path d="M0 0 C-2.3129482 2.3129482 -3.47904875 2.49580975 -6.625 3.125 C-7.44226563 3.29257812 -8.25953125 3.46015625 -9.1015625 3.6328125 C-10.04128906 3.81457031 -10.04128906 3.81457031 -11 4 C-10.67 3.01 -10.34 2.02 -10 1 C-6.59437148 0.22157062 -3.49234244 -0.09978121 0 0 Z " fill="#030E22" transform="translate(304,406)"/>
<path d="M0 0 C0.1953125 2.05078125 0.390625 4.1015625 0.5859375 6.15234375 C0.72257812 6.76207031 0.85921875 7.37179687 1 8 C1.66 8.33 2.32 8.66 3 9 C2.01 9 1.02 9 0 9 C-1.32 6.36 -2.64 3.72 -4 1 C-1 0 -1 0 0 0 Z " fill="#6379A2" transform="translate(55,357)"/>
<path d="M0 0 C0.99 0.33 1.98 0.66 3 1 C2.67 4.3 2.34 7.6 2 11 C1.67 11 1.34 11 1 11 C0.67 7.37 0.34 3.74 0 0 Z " fill="#5F78A3" transform="translate(25,288)"/>
<path d="M0 0 C0 0.66 0 1.32 0 2 C-7.42857143 4.42857143 -7.42857143 4.42857143 -11 3 C-7.14243493 0.84694043 -4.44870215 -0.39253254 0 0 Z " fill="#68789B" transform="translate(362,444)"/>
<path d="M0 0 C1.98 0.66 3.96 1.32 6 2 C6 2.66 6 3.32 6 4 C7.65 4.33 9.3 4.66 11 5 C8 6 8 6 4.375 4.75 C1 3 1 3 0 0 Z " fill="#2E4778" transform="translate(176,395)"/>
<path d="M0 0 C4.03384128 2.07143201 5.92856799 3.96615872 8 8 C7.34 8 6.68 8 6 8 C6 7.34 6 6.68 6 6 C5.195625 5.7525 4.39125 5.505 3.5625 5.25 C1 4 1 4 0.1875 1.875 C0.125625 1.25625 0.06375 0.6375 0 0 Z " fill="#041027" transform="translate(323,310)"/>
<path d="M0 0 C0.66 0 1.32 0 2 0 C2 0.66 2 1.32 2 2 C3.98 2 5.96 2 8 2 C8 2.66 8 3.32 8 4 C5.36 4 2.72 4 0 4 C0 2.68 0 1.36 0 0 Z " fill="#496793" transform="translate(240,281)"/>
<path d="M0 0 C0.33 0 0.66 0 1 0 C1.375 2.25 1.375 2.25 1 5 C-2 7.3125 -2 7.3125 -5 9 C-3.75471468 5.55151758 -2.38532951 2.80016942 0 0 Z " fill="#040F24" transform="translate(115,151)"/>
<path d="M0 0 C2.475 0.99 2.475 0.99 5 2 C4.625 4.4375 4.625 4.4375 4 7 C3.01 7.495 3.01 7.495 2 8 C1.33333333 5.33333333 0.66666667 2.66666667 0 0 Z " fill="#3E4B67" transform="translate(368,119)"/>
<path d="M0 0 C-0.66 0 -1.32 0 -2 0 C-2 0.66 -2 1.32 -2 2 C-4.31 3.32 -6.62 4.64 -9 6 C-8.8125 4.1875 -8.8125 4.1875 -8 2 C-3.744 -1.248 -3.744 -1.248 0 0 Z " fill="#305083" transform="translate(170,98)"/>
<path d="M0 0 C0.99 0.33 1.98 0.66 3 1 C2.34 2.65 1.68 4.3 1 6 C0.01 6 -0.98 6 -2 6 C-2.33 5.01 -2.66 4.02 -3 3 C-2.01 3 -1.02 3 0 3 C0 2.01 0 1.02 0 0 Z " fill="#4F699B" transform="translate(403,82)"/>
<path d="M0 0 C0.33 0.66 0.66 1.32 1 2 C0.34 2 -0.32 2 -1 2 C-1.33 2.99 -1.66 3.98 -2 5 C-3.65 4.67 -5.3 4.34 -7 4 C-6 2 -6 2 -2.9375 0.875 C-1.4834375 0.441875 -1.4834375 0.441875 0 0 Z " fill="#556897" transform="translate(148,47)"/>
<path d="M0 0 C0 0.33 0 0.66 0 1 C-1.258125 1.04125 -2.51625 1.0825 -3.8125 1.125 C-4.52019531 1.14820313 -5.22789062 1.17140625 -5.95703125 1.1953125 C-8 1 -8 1 -11 -1 C-6.70700357 -2.26264601 -4.12168689 -1.62950412 0 0 Z " fill="#566C98" transform="translate(334,37)"/>
<path d="M0 0 C0.66 0.33 1.32 0.66 2 1 C1.01 2.485 1.01 2.485 0 4 C0.66 4.66 1.32 5.32 2 6 C-0.375 6.625 -0.375 6.625 -3 7 C-3.66 6.34 -4.32 5.68 -5 5 C-3.35 3.35 -1.7 1.7 0 0 Z " fill="#4E6DA4" transform="translate(377,434)"/>
<path d="M0 0 C0.66 0 1.32 0 2 0 C2 0.66 2 1.32 2 2 C3.65 1.67 5.3 1.34 7 1 C4.53721199 3.46278801 2.29323018 3.99771255 -1 5 C-1 4.34 -1 3.68 -1 3 C-1.66 2.67 -2.32 2.34 -3 2 C-2.01 2 -1.02 2 0 2 C0 1.34 0 0.68 0 0 Z " fill="#677CA6" transform="translate(387,432)"/>
<path d="M0 0 C2.125 0.375 2.125 0.375 4 1 C-1.75 6 -1.75 6 -4 6 C-2.84826645 3.53199953 -1.95216435 1.95216435 0 0 Z " fill="#02071D" transform="translate(349,380)"/>
<path d="M0 0 C3.3 0.33 6.6 0.66 10 1 C10 1.99 10 2.98 10 4 C6.7 3.01 3.4 2.02 0 1 C0 0.67 0 0.34 0 0 Z " fill="#091532" transform="translate(182,398)"/>
<path d="M0 0 C0.33 1.32 0.66 2.64 1 4 C0.01 4.495 0.01 4.495 -1 5 C-1 5.66 -1 6.32 -1 7 C-2.32 6.34 -3.64 5.68 -5 5 C-3.35 3.35 -1.7 1.7 0 0 Z " fill="#3D3737" transform="translate(314,319)"/>
<path d="M0 0 C0.33 0 0.66 0 1 0 C1 1.65 1 3.3 1 5 C1.66 5 2.32 5 3 5 C2.67 6.32 2.34 7.64 2 9 C1.01 8.34 0.02 7.68 -1 7 C-0.67 4.69 -0.34 2.38 0 0 Z " fill="#2E4F82" transform="translate(93,288)"/>
<path d="M0 0 C3.12290635 0.48578543 5.99580359 0.9986012 9 2 C9.33 2.99 9.66 3.98 10 5 C6.08788267 3.84414715 3.1254959 2.64465038 0 0 Z " fill="#304F80" transform="translate(310,82)"/>
<path d="M0 0 C1.98 0 3.96 0 6 0 C6.33 0.99 6.66 1.98 7 3 C5.02 3 3.04 3 1 3 C0.67 2.01 0.34 1.02 0 0 Z " fill="#304B81" transform="translate(313,33)"/>
<path d="M0 0 C2.3125 0.1875 2.3125 0.1875 5 1 C6.8125 3.5625 6.8125 3.5625 8 6 C4.08597051 4.73058503 2.20927127 3.48832306 0 0 Z " fill="#08132E" transform="translate(160,384)"/>
<path d="M0 0 C3.875 0.875 3.875 0.875 5 2 C5.04063832 3.66617115 5.042721 5.33388095 5 7 C2.47411298 4.63707344 1.11179163 3.33537489 0 0 Z " fill="#6376A3" transform="translate(61,373)"/>
<path d="M0 0 C1.32 0.66 2.64 1.32 4 2 C2.625 4 2.625 4 1 6 C0.34 6 -0.32 6 -1 6 C-1.042721 4.33388095 -1.04063832 2.66617115 -1 1 C-0.67 0.67 -0.34 0.34 0 0 Z " fill="#343233" transform="translate(361,132)"/>
<path d="M0 0 C0.53625 0.226875 1.0725 0.45375 1.625 0.6875 C-1.04166667 2.02083333 -3.70833333 3.35416667 -6.375 4.6875 C-7.035 4.0275 -7.695 3.3675 -8.375 2.6875 C-2.95961538 -0.38942308 -2.95961538 -0.38942308 0 0 Z " fill="#08132A" transform="translate(194.375,86.3125)"/>
<path d="M0 0 C3.65316671 1.24976756 4.78065836 1.67098753 7 5 C2.25 4.125 2.25 4.125 0 3 C0 2.01 0 1.02 0 0 Z " fill="#6C7CA0" transform="translate(386,61)"/>
<path d="M0 0 C0.8971875 0.309375 0.8971875 0.309375 1.8125 0.625 C-2.02075617 3.33082788 -4.51288149 3.95113618 -9.1875 3.625 C-8.2903125 3.191875 -8.2903125 3.191875 -7.375 2.75 C-1.52083333 -0.26071429 -1.52083333 -0.26071429 0 0 Z " fill="#576990" transform="translate(158.1875,43.375)"/>
</svg>
