<?xml version="1.0" encoding="UTF-8"?>
<!DOCTYPE svg PUBLIC "-//W3C//DTD SVG 1.1//EN" "http://www.w3.org/Graphics/SVG/1.1/DTD/svg11.dtd">
<!-- Creator: CorelDRAW 2019 (64-Bit) -->
<svg xmlns="http://www.w3.org/2000/svg" xml:space="preserve" width="184mm" height="92.2843mm" version="1.1" style="shape-rendering:geometricPrecision; text-rendering:geometricPrecision; image-rendering:optimizeQuality; fill-rule:evenodd; clip-rule:evenodd"
viewBox="0 0 184.0004 92.2846"
 xmlns:xlink="http://www.w3.org/1999/xlink"
 xmlns:xodm="http://www.corel.com/coreldraw/odm/2003">
 <defs>
  <style type="text/css">
   <![CDATA[
    .fil0 {fill:#BD1928}
   ]]>
  </style>
 </defs>
 <g id="Layer_x0020_1">
  <metadata id="CorelCorpID_0Corel-Layer"/>
  <path class="fil0" d="M86.9246 92.2176c-6.1017,-0.1612 -12.83,-0.6978 -18.7872,-1.5 -25.3584,-3.4117 -46.6085,-12.1064 -58.4383,-23.9132 -5.0169,-5.0063 -8.1957,-10.5071 -9.268,-16.0367 -0.3489,-1.8008 -0.4312,-2.6825 -0.4312,-4.625 0,-1.9425 0.0823,-2.8252 0.4312,-4.6257 0.7044,-3.6341 2.3785,-7.3821 4.8483,-10.8553 5.5851,-7.8533 15.385,-14.8463 28.2432,-20.1517 21.431,-8.8435 49.493,-12.3461 76.8189,-9.5891 32.0775,3.2362 58.466,14.9413 68.9377,30.5804 4.7871,7.1492 5.9599,14.9135 3.3983,22.5037 -1.4786,4.3824 -4.3528,8.7621 -8.3979,12.7995 -11.2087,11.1864 -30.9351,19.6218 -54.6116,23.3535 -10.5897,1.6695 -21.506,2.3558 -32.7434,2.0597zm13.9897 -5.9025l0 0c12.8397,-0.7955 23.6814,-2.6823 34.2472,-5.9619 8.3834,-2.6017 16.1977,-6.2032 22.1967,-10.2311 3.0237,-2.0296 5.1205,-3.7433 7.4923,-6.1198 2.8177,-2.8233 4.6345,-5.3007 6.1153,-8.3328 1.6549,-3.3914 2.2959,-6.0508 2.2959,-9.5267 0,-3.496 -0.6831,-6.2972 -2.3593,-9.6771 -1.45,-2.9239 -3.3004,-5.4253 -6.0519,-8.1823 -4.04,-4.05 -8.8396,-7.3887 -15.1837,-10.5646 -11.8757,-5.9446 -26.7348,-9.8344 -43.2871,-11.3314 -9.1683,-0.829 -19.5835,-0.829 -28.7814,-0.001 -23.2714,2.0959 -43.2477,9.0035 -55.6085,19.23 -1.5678,1.2966 -4.3622,4.118 -5.5344,5.5873 -4.1878,5.2506 -6.166,10.9163 -5.7155,16.3758 0.4916,5.9474 3.1692,11.1924 8.3874,16.4229 3.9521,3.9616 8.6518,7.2544 14.7631,10.3452 13.9159,7.0361 31.0164,11.0687 51.129,12.0576 2.2714,0.1112 13.6809,0.0471 15.8948,-0.09zm-65.2356 -16.8495l0 0c0.1101,0.0461 2.7425,0.0738 5.8504,0.0633l5.6496 -0.0202 0.2424 -0.2806 0.2414 -0.2819 0.0019 -9.0954c0.0011,-7.1061 0.0289,-9.1503 0.1276,-9.3457 0.1456,-0.2903 0.5979,-0.3882 0.8452,-0.1831 0.088,0.0729 3.0706,4.2168 6.627,9.2086 3.5562,4.992 6.5778,9.1963 6.7149,9.3446 0.137,0.1478 0.4686,0.3625 0.7371,0.4783 0.481,0.2071 0.5806,0.209 7.1165,0.1832l6.6297 -0.028 0.251 -0.2911c0.1918,-0.2233 0.2416,-0.3766 0.2119,-0.6526 -0.0393,-0.3663 -0.0805,-0.4257 -12.9318,-18.5613 -2.9076,-4.1043 -3.5889,-5.1259 -3.5909,-5.3894 -0.0028,-0.2531 0.2895,-0.7581 1.3369,-2.3058 9.59,-14.1852 12.3366,-18.2629 12.4229,-18.447 0.1351,-0.2904 0.0231,-0.6967 -0.274,-0.9939l-0.2424 -0.2423 -6.3482 0.0027c-7.0877,0.0019 -6.7772,-0.0277 -7.4624,0.7122 -0.2779,0.3008 -3.3591,4.6238 -8.9586,12.5733 -2.114,3.0004 -2.2453,3.1587 -2.6258,3.1587 -0.6113,0 -0.5885,0.3181 -0.5885,-8.1861l0 -7.7415 -0.3094 -0.2598 -0.3086 -0.2605 -7.287 0.0257 -7.2883 0.0261 0 2.7072 1.013 0.0287c0.9573,0.0268 1.0263,0.0432 1.2775,0.3057l0.2655 0.277 0.0257 21.4706c0.026,21.3113 0.0277,21.4724 0.2272,21.6936 0.1102,0.1227 0.2903,0.2608 0.4006,0.3067zm50.3413 -0.0449l0 0c0.2423,0.1062 1.4547,0.1283 6.0919,0.1111l5.7894 -0.0231 0.5557 -0.5556 0 -45.7424 -0.3277 -0.2921 -0.3268 -0.2932 -14.8397 0 0 2.8088 0.9613 0c0.9276,0 0.9697,0.0096 1.2533,0.2922l0.2935 0.2934 0 21.3641c0,16.652 0.0268,21.4235 0.1226,21.6333 0.0669,0.1488 0.2597,0.3298 0.4265,0.4036zm21.5636 0.0172l0 0 0 0.001c0.3188,0.183 11.2794,0.1668 11.7191,-0.0172 0.5109,-0.2137 0.7113,-0.5559 1.1635,-1.9934 0.23,-0.7303 0.7494,-2.3662 1.1558,-3.6351 0.4054,-1.2688 1.7834,-5.6004 3.0609,-9.6273 4.4016,-13.8679 4.7132,-14.8271 4.8788,-15.0101 0.208,-0.2292 0.3604,-0.2311 0.5618,-0.0079 0.182,0.2031 -0.0422,-0.4848 8.0538,24.7443 0.8491,2.6469 1.6269,4.9258 1.7288,5.0646 0.1006,0.1392 0.3381,0.3307 0.528,0.4275 0.3152,0.1612 0.8098,0.1753 5.9301,0.1753 3.8803,0 5.6609,-0.0333 5.8303,-0.1111 0.2685,-0.1226 0.4669,-0.4742 0.4669,-0.828 0,-0.2146 -1.75,-5.4903 -9.4059,-28.3436 -4.7056,-14.0482 -5.7041,-16.9998 -5.8297,-17.2346 -0.0603,-0.1131 -0.279,-0.2529 -0.4847,-0.3105 -0.2463,-0.0681 -3.4337,-0.1046 -9.2788,-0.1046l-8.9029 -0.0017 0.0557 2.758 0.987 0.0508c0.8845,0.0442 1.0072,0.0749 1.1788,0.2866 0.1054,0.1302 0.1905,0.3594 0.1905,0.5098 0,0.1503 -0.3881,1.4202 -0.8632,2.8223 -0.4755,1.401 -2.21,6.5646 -3.8534,11.474 -1.6438,4.9086 -4.4141,13.1809 -6.1554,18.3817 -1.7425,5.2008 -3.1653,9.6015 -3.1646,9.7779 0.0039,0.3496 0.137,0.5731 0.4488,0.7513z"/>
 </g>
</svg>
