<?xml version="1.0" encoding="UTF-8"?>
<!DOCTYPE svg PUBLIC "-//W3C//DTD SVG 1.1//EN" "http://www.w3.org/Graphics/SVG/1.1/DTD/svg11.dtd">
<!-- Creator: CorelDRAW 2019 (64-Bit) -->
<svg xmlns="http://www.w3.org/2000/svg" xml:space="preserve" width="204.291mm" height="22.5393mm" version="1.1" style="shape-rendering:geometricPrecision; text-rendering:geometricPrecision; image-rendering:optimizeQuality; fill-rule:evenodd; clip-rule:evenodd"
viewBox="0 0 204.29 22.5392"
 xmlns:xlink="http://www.w3.org/1999/xlink"
 xmlns:xodm="http://www.corel.com/coreldraw/odm/2003">
 <defs>
  <style type="text/css">
   <![CDATA[
    .fil1 {fill:#2D3394}
    .fil0 {fill:#9D9EA1}
   ]]>
  </style>
 </defs>
 <g id="Layer_x0020_1">
  <metadata id="CorelCorpID_0Corel-Layer"/>
  <g id="_833296224">
   <path class="fil0" d="M11.1739 0c-3.309,2.9249 -7.0497,5.1311 -11.0774,6.8579l14.3386 10.2627 -0.8156 0.3829 -5.947 -3.9318c-1.9179,-1.2946 -6.7137,-0.3836 -7.6725,1.2468l11.0297 7.7208c3.0696,-2.9255 6.7615,-5.2752 11.1256,-7.0496l-14.4822 -10.0705 0.7675 -0.6234 4.6995 3.3561c2.3497,1.6786 4.22,2.1103 9.2558,-0.3835l-11.222 -7.7684z"/>
   <polygon class="fil1" points="33.6167,5.6105 39.8988,5.6105 41.7692,12.1806 43.6394,5.6105 49.8734,5.6105 49.8734,16.88 45.8456,16.88 45.8456,8.8235 45.7973,8.8235 43.4477,16.88 40.0912,16.88 37.6932,8.8235 37.6932,16.88 33.6167,16.88 "/>
   <path class="fil1" d="M58.0264 9.0153l-1.3433 3.8371 2.6855 0 -1.3422 -3.8371zm-2.782 -3.4048l0 0 5.4668 0 4.7954 11.2695 -4.7477 0 -0.4794 -1.2946 -4.6517 0 -0.4793 1.2946 -4.7475 0 4.8434 -11.2695z"/>
   <path class="fil1" d="M80.8527 5.6105l4.4601 0 0 6.8096c0,1.4391 0.8152,1.9184 2.3015,1.9184 1.4387,0 2.302,-0.4793 2.302,-1.9184l0 -6.8096 4.46 0 0 7.0018c0,3.5966 -2.1579,4.6518 -6.762,4.6518 -4.556,0 -6.7621,-1.1028 -6.7621,-4.6518l0 -7.0018 0.0005 0z"/>
   <polygon class="fil1" points="99.3643,8.4406 95.2396,8.4406 95.2396,5.6105 107.9472,5.6105 107.9472,8.4406 103.8237,8.4406 103.8237,16.88 99.3643,16.88 "/>
   <polygon class="fil1" points="108.8589,16.8802 113.3184,16.8802 113.3184,5.6105 108.8589,5.6105 "/>
   <path class="fil1" d="M70.4464 8.4406l3.1172 0c0.7189,0 1.2947,0.1918 1.2947,1.0547 0,0.7198 -0.3835,1.0551 -1.2464,1.0551l-3.1655 0 0 -2.1098zm10.1664 8.4394l0 0 -3.7883 -3.5006c3.1173,-0.4794 2.7338,-3.5483 2.7338,-4.603 0,-1.2469 -0.6717,-2.3019 -1.5346,-2.7337 -0.6235,-0.2876 -1.391,-0.4317 -2.6854,-0.4317l-9.3518 0 0 11.2696 4.4599 0 0 -3.4526 0.7676 0 3.7408 3.4526 5.658 0 0 -0.0006z"/>
   <path class="fil1" d="M127.8011 12.0848c-2.1575,-0.3354 -3.069,-1.5827 -3.069,-3.1648 0,-2.9249 2.8778,-3.6924 6.5221,-3.6924 5.0357,0 7.0972,1.2945 7.2414,3.6924l-5.1794 0c0,-0.4794 -0.2878,-0.7193 -0.6718,-0.9111 -0.3839,-0.1917 -0.911,-0.2399 -1.3908,-0.2399 -1.3423,0 -1.774,0.3352 -1.774,0.8152 0,0.3358 0.144,0.5276 0.5757,0.5757l5.3236 0.7671c2.2539,0.3358 3.6436,1.3907 3.6436,3.2611 0,2.7333 -2.2532,4.0283 -7.2408,4.0283 -3.4049,0 -7.1451,-0.4798 -7.1926,-3.7889l5.3705 0c0,0.384 0.1434,0.6235 0.4794,0.8153 0.3358,0.1434 0.8152,0.2393 1.5351,0.2393 1.3908,0 1.7738,-0.3834 1.7738,-0.911 0,-0.3358 -0.1917,-0.6711 -0.8146,-0.767l-5.1322 -0.7193z"/>
   <path class="fil1" d="M140.2218 5.6105l4.4596 0 0 6.8096c0,1.4391 0.8158,1.9184 2.3025,1.9184 1.4373,0 2.3011,-0.4793 2.3011,-1.9184l0 -6.8096 4.4591 0 0 7.0018c0,3.5966 -2.1578,4.6518 -6.7602,4.6518 -4.5567,0 -6.7621,-1.1028 -6.7621,-4.6518l0 -7.0018z"/>
   <polygon class="fil1" points="154.8959,14.4827 161.6587,8.4406 155.3754,8.4406 155.3754,5.6105 167.6527,5.6105 167.6527,8.0566 161.0828,14.051 167.508,14.051 167.508,16.88 154.8959,16.88 "/>
   <path class="fil1" d="M168.8516 5.6105l4.4589 0 0 6.8096c0,1.4391 0.8158,1.9184 2.3025,1.9184 1.4386,0 2.3011,-0.4793 2.3011,-1.9184l0 -6.8096 4.4603 0 0 7.0018c0,3.5966 -2.1578,4.6518 -6.7614,4.6518 -4.5555,0 -6.7629,-1.1028 -6.7629,-4.6518l0 -7.0018 0.0015 0z"/>
   <polygon class="fil1" points="199.8299,16.8802 204.29,16.8802 204.29,5.6105 199.8299,5.6105 "/>
   <polygon class="fil1" points="184.2925,16.88 188.608,16.88 188.5131,12.8524 192.8769,16.88 198.536,16.88 192.3491,11.1256 198.8722,5.6105 193.4515,5.6105 188.608,9.4953 188.608,5.6105 184.2925,5.6105 "/>
  </g>
 </g>
</svg>
