<?xml version="1.0" encoding="utf-8"?>
<!-- Generator: Adobe Illustrator 27.0.0, SVG Export Plug-In . SVG Version: 6.00 Build 0)  -->
<svg version="1.1" id="Layer_1" xmlns="http://www.w3.org/2000/svg" xmlns:xlink="http://www.w3.org/1999/xlink" x="0px" y="0px"
	 viewBox="0 0 402.79 203.57" style="enable-background:new 0 0 402.79 203.57;" xml:space="preserve">
<style type="text/css">
	.st0{fill:#CF3338;}
</style>
<g>
	<path class="st0" d="M47.53,187.55h-9.26c-4.64,0-8.4,3.59-8.4,8c0,4.4,3.76,7.99,8.4,7.99h9.26c4.63,0,8.39-3.59,8.39-7.99
		C55.92,191.14,52.16,187.55,47.53,187.55 M47.25,200.57h-8.71c-2.88,0-5.23-2.25-5.23-5.03c0-2.77,2.35-5.03,5.23-5.03h8.71
		c2.89,0,5.24,2.26,5.24,5.03C52.48,198.32,50.13,200.57,47.25,200.57"/>
	<polygon class="st0" points="145.09,200.62 134.43,200.62 134.43,190.47 145.09,190.47 145.09,187.55 120.38,187.55 120.38,190.47 
		131.2,190.47 131.2,200.62 120.38,200.62 120.38,203.54 145.09,203.54 	"/>
	<path class="st0" d="M169.94,200.59h-19.05v2.95h19.43c2.65,0,4.78-2.11,4.78-4.71c0-2.6-2.14-4.71-4.78-4.71H155.5
		c-1,0-1.81-0.81-1.81-1.81c0-0.99,0.81-1.8,1.81-1.8h19.05v-2.95h-19.42c-2.65,0-4.79,2.14-4.79,4.75c0,2.63,2.14,4.77,4.79,4.77
		h14.82c1,0,1.82,0.78,1.82,1.76C171.76,199.8,170.94,200.59,169.94,200.59"/>
	<path class="st0" d="M398,194.11h-14.83c-1,0-1.81-0.81-1.81-1.81c0-0.99,0.81-1.8,1.81-1.8h19.08v-2.95h-19.45
		c-2.63,0-4.8,2.14-4.8,4.75c0,2.63,2.16,4.76,4.8,4.76h14.83c1,0,1.82,0.79,1.82,1.76c0,0.97-0.82,1.76-1.82,1.76h-19.06v2.95H398
		c2.64,0,4.79-2.11,4.79-4.71C402.79,196.23,400.64,194.11,398,194.11"/>
	<path class="st0" d="M224.1,202.08v-6.62c0-0.81-0.66-1.47-1.49-1.47h-16.7v2.92h14.85v3.7h-13.03c-2.89,0-5.24-2.27-5.24-5.07
		c0-2.8,2.35-5.07,5.24-5.07h16.35v-2.93h-16.72c-4.53,0-8.22,3.59-8.22,8c0,4.4,3.69,7.99,8.22,7.99h15.26
		C223.44,203.54,224.1,202.89,224.1,202.08"/>
	<path class="st0" d="M341.11,193.99h-16.72v2.93h14.85v3.7h-13.03c-2.88,0-5.23-2.27-5.23-5.07c0-2.8,2.35-5.07,5.23-5.07h16.35
		v-2.93h-16.71c-4.53,0-8.22,3.59-8.22,8c0,4.4,3.68,7.99,8.22,7.99h15.26c0.83,0,1.49-0.66,1.49-1.46v-6.62
		C342.6,194.65,341.93,193.99,341.11,193.99"/>
	<path class="st0" d="M348.09,189.02v13.05c0,0.81,0.66,1.47,1.48,1.47h22.43v-2.95h-20.56v-3.58h20.56v-2.94h-20.56v-3.58h20.56
		v-2.94h-22.43C348.76,187.55,348.09,188.21,348.09,189.02"/>
	<path class="st0" d="M80.33,197.15c2.83,0,5.04-2.11,5.04-4.8c0-2.69-2.22-4.8-5.04-4.8H60.17v15.99h3.35v-6.39h11.13
		c0.07,0.03,6.16,6.42,6.16,6.42s4.25-0.03,4.65-0.03c-0.28-0.3-6.1-6.39-6.1-6.39H80.33z M63.53,194.17v-0.09v-3.56h16.43
		c1.03,0,2.07,0.63,2.07,1.82c0,1.2-1.04,1.82-2.07,1.82H63.53z"/>
	<path class="st0" d="M110.89,197.15c2.83,0,5.05-2.11,5.05-4.8c0-2.69-2.22-4.8-5.05-4.8H90.73v15.99h3.36v-6.39h11.12
		c0.07,0.03,6.16,6.42,6.16,6.42s4.25-0.03,4.65-0.03c-0.28-0.3-6.09-6.39-6.09-6.39H110.89z M94.09,194.17v-0.09v-3.56h16.44
		c1.02,0,2.05,0.63,2.05,1.82c0,1.2-1.03,1.82-2.05,1.82H94.09z"/>
	<path class="st0" d="M279.62,197.15c2.82,0,5.04-2.11,5.04-4.8c0-2.69-2.22-4.8-5.04-4.8h-20.17v15.99h3.35v-6.39h11.13
		c0.07,0.03,6.16,6.42,6.16,6.42s4.25-0.03,4.65-0.03c-0.29-0.3-6.1-6.39-6.1-6.39H279.62z M262.81,194.17v-0.09v-3.56h16.44
		c1.02,0,2.05,0.63,2.05,1.82c0,1.2-1.03,1.82-2.05,1.82H262.81z"/>
	<path class="st0" d="M12.84,193.75l-0.05,0.03l-10.06-6.26c0,0-2.29,0.03-2.74,0.03v15.99h3.35V191.4c0,0,9.35,5.81,9.44,5.87
		c0.09-0.06,9.59-5.89,9.59-5.89v12.16h3.35v-15.99h-2.82C22.91,187.57,12.84,193.75,12.84,193.75"/>
	<path class="st0" d="M242.03,187.55c-0.46,0-0.87,0.2-1.16,0.54c0,0-12.58,15.16-12.83,15.46h4.22c0.05-0.06,1.78-2.16,1.78-2.16
		h15.94c0,0,1.73,2.1,1.78,2.16h4.2c-0.24-0.3-12.77-15.45-12.77-15.45C242.9,187.75,242.48,187.55,242.03,187.55 M247.58,198.47
		h-11.14l0.31-0.36l1.78-2.16l3.5-4.25l3.37,4.11L247.58,198.47z"/>
	<path class="st0" d="M302.27,187.55L302.27,187.55c-0.45,0-0.88,0.2-1.16,0.54c0,0-12.59,15.16-12.83,15.46h4.21
		c0.05-0.06,1.79-2.16,1.79-2.16h15.93c0,0,1.73,2.1,1.79,2.16h4.2c-0.25-0.3-12.78-15.45-12.78-15.45
		C303.15,187.75,302.73,187.55,302.27,187.55 M307.82,198.47h-11.13l0.3-0.36l1.77-2.16l3.51-4.25l3.37,4.11L307.82,198.47z"/>
	<path class="st0" d="M173.78,148.96c4.45,0.34,14.23,0.94,27.94,0.94c13.71,0,23.49-0.6,27.94-0.94c1.75-0.13,3.41-0.5,4.74-1.65
		c3.47-3,11.06-9.71,20.43-19.09c9.69-9.69,16.18-17.03,19.09-20.42c1.14-1.33,1.83-3,1.96-4.75c0.34-4.57,0.95-14.69,0.95-27.94
		c0-13.71-0.6-23.49-0.94-27.94c-0.13-1.75-0.83-3.41-1.97-4.74c-3-3.47-9.72-11.06-19.09-20.43c-9.38-9.38-16.96-16.09-20.43-19.09
		c-1.33-1.15-2.99-1.84-4.74-1.97C225.21,0.6,215.43,0,201.72,0s-23.49,0.6-27.94,0.94c-1.75,0.13-3.41,0.82-4.74,1.97
		c-3.47,2.99-11.06,9.71-20.43,19.09c-9.71,9.71-16.2,17.05-19.1,20.43c-1.14,1.33-1.82,2.98-1.95,4.72
		c-0.34,4.44-0.94,14.23-0.94,27.96c0,13.26,0.61,23.37,0.95,27.94c0.13,1.75,0.81,3.41,1.96,4.75c2.91,3.39,9.4,10.73,19.09,20.42
		c9.37,9.37,16.96,16.09,20.43,19.09C170.37,148.45,172.03,148.82,173.78,148.96 M135.11,105.06c-0.97-1.13-1.55-2.53-1.66-4.01
		c-0.31-4.11-0.89-13.53-0.89-25.94c0-12.86,0.57-21.96,0.88-25.95c0.11-1.47,0.69-2.86,1.65-3.98c2.6-3.04,8.63-9.88,17.72-18.97
		c8.78-8.78,15.85-15.02,18.97-17.71c1.13-0.97,2.53-1.55,4.01-1.66c4-0.31,13.09-0.88,25.92-0.88c12.83,0,21.92,0.57,25.92,0.88
		c1.48,0.11,2.89,0.7,4.01,1.66c3.12,2.69,10.19,8.93,18.97,17.71c8.77,8.77,15.02,15.85,17.71,18.97c0.97,1.13,1.55,2.53,1.66,4.01
		c0.31,4,0.88,13.09,0.88,25.92c0,12.41-0.58,21.83-0.89,25.94c-0.11,1.48-0.69,2.88-1.66,4.01c-2.61,3.05-8.64,9.88-17.71,18.95
		c-8.78,8.78-15.85,15.02-18.97,17.71c-1.13,0.97-2.53,1.55-4.01,1.66c-4,0.31-13.09,0.88-25.92,0.88
		c-12.83,0-21.92-0.57-25.92-0.88c-1.48-0.11-2.89-0.7-4.01-1.66c-3.12-2.69-10.19-8.93-18.97-17.71
		C143.75,114.94,137.72,108.11,135.11,105.06"/>
	<path class="st0" d="M206.66,135.19c0,0,13.22,0.12,19.61-0.77c4.37-3.67,12.67-11.51,18.72-17.56
		c6.46-6.53,12.01-12.48,13.42-14.15c0.58-0.69,1.92-2.12,2.61-3.09c0.1-0.82,0.16-1.52,0.26-3.06c0.47-7.57,0.56-21.14,0.56-21.58
		c-0.59-0.04-20.38-0.02-20.81,0c-0.01,0.33,0.03,10.4,0.03,10.45c0.24,0.01,9.71-0.01,10.06,0.01c-0.01,0.18-0.27,8.57-0.48,9.97
		c-0.75,1.05-1.96,2.15-3.3,3.65c-1.46,1.63-3.55,3.84-7.84,8.24c-5.38,5.51-13.74,13.34-17.48,16.64c0.04-0.5-0.09-96.8-0.05-97.76
		c0.98,0.82,3.33,2.97,3.99,3.58c4.55,4.27,9.3,8.64,13.17,12.68c5.65,5.91,11.31,12.06,11.56,12.48c0.08,0.45,0.32,5.58,0.3,6
		c0.39,0.04,10.25-0.02,10.64,0.01l0.03,0c-0.11-5.02-0.51-9.41-0.64-10.38c-0.22-0.4-0.77-1.01-1.1-1.39
		c-4.31-4.88-8.64-9.59-14.53-15.45c-11.46-11.41-17.62-16.82-19.14-17.88c-1.13-0.12-3.22-0.29-8.88-0.55
		c-4.51-0.2-10.22-0.32-10.69-0.3c-0.02,1-0.1,76.32-0.03,119.16C206.64,134.94,206.66,135.19,206.66,135.19"/>
	<path class="st0" d="M181.06,45.51c0.16-0.16,0.32-0.72,0.32-0.72s0.08,11.97,0,14.15c0,34.46-0.02,56.98,0.03,75.74l-0.03,0.03
		c1.58,0.08,8.09,0.44,14.05,0.47c0.52,0,1.18,0.02,1.46,0c0.02-0.56,0-0.83,0-1.34c0-43.94-0.01-117.65-0.01-117.65
		s-0.03-0.44-0.05-1.17c-0.41-0.01-3.56-0.07-7.54,0.11c-3.87,0.18-7.58,0.31-7.94,0.35c-0.14,0.33-4.99,10.25-9.96,22.58
		c-6.5,16.11-9.18,24.13-9.18,24.13s-0.24-0.31-2.25-3.74c-3.34-5.7-6.9-11.99-8.91-14.93c-0.35-0.51-0.97-1.4-0.97-1.4
		s-0.1,0.04-0.65,0.55c-1.15,1.07-5.74,6.28-6.71,7.41c-0.46,0.54-0.33,0.51-0.38,0.67c-0.08,1.05-0.64,9.45-0.75,22.36
		c-0.11,13.28,0.19,20.25,0.81,26.52c1.45,1.82,2.55,3.16,5.8,6.6c1.83,1.93,5.21,5.46,5.25,5.46c0,0-0.43-5.93-0.47-6.98
		c-0.4-8.25-0.73-15.88-0.8-25.42c-0.02-1.01-0.02-11.46-0.02-11.46l4.95,8.65l7.05,12.47l0.23,0.2c2.5-6.63,5.66-15.62,8.97-24.29
		C175.96,58.06,178.69,51.63,181.06,45.51"/>
</g>
</svg>
